#N canvas 439 342 327 225 10;
#X obj 46 172 nbx 20 14 -1e+37 1e+37 0 0 empty empty empty 0 -8 0 10
-262144 -1 -1 1.84915e+22 256;
#X obj 46 116 *;
#X obj 46 38 nbx 10 14 -1e+37 1e+37 0 0 empty empty empty 0 -8 0 10
-262144 -1 -1 453.592 256;
#X obj 61 89 2.99792e+08;
#X obj 46 143 pow 2;
#X obj 46 57 t f b;
#X text 127 156 E;
#X text 46 20 M;
#X text 95 72 C;
#X connect 1 0 4 0;
#X connect 2 0 5 0;
#X connect 3 0 1 1;
#X connect 4 0 0 0;
#X connect 5 0 1 0;
#X connect 5 1 3 0;
