#N canvas 131 176 695 492 10;
#X floatatom 74 275 3 0 0 0 - - -, f 3;
#X obj 27 221 notein;
#X obj 27 247 stripnote;
#X floatatom 27 272 3 0 0 0 - - -, f 3;
#X text 27 197 MIDI IN;
#X floatatom 150 272 3 0 0 0 - - -, f 3;
#X floatatom 120 271 3 0 0 0 - - -, f 3;
#X obj 120 246 ctlin;
#X obj 27 292 bng 20 250 50 0 empty empty empty 17 7 0 10 -262144 -1
-1;
#X obj 120 293 bng 20 250 50 0 empty empty empty 17 7 0 10 -262144
-1 -1;
#X obj 283 248 osc~;
#X obj 330 118 mtof;
#X obj 334 158 nbx 5 14 -1e+37 1e+37 0 0 empty empty empty 0 -8 0 10
-262144 -1 -1 349.228 256;
#X obj 81 387 dac~;
#X obj 90 350 *~;
#X obj 74 306 / 65;
#X obj 371 345 vcf~;
#X obj 424 217 sig~;
#X text 413 161 center frequency;
#X text 541 201 q;
#X floatatom 424 188 5 0 0 0 - - -, f 5;
#X floatatom 520 220 5 0 0 0 - - -, f 5;
#X obj 387 281 vcf~ 1;
#X text 457 273 optional argument to initialize q;
#X obj 358 233 noise~;
#X obj 255 347 *~ 10;
#X obj 293 402 nbx 5 14 -1e+37 1e+37 0 0 empty empty empty 0 -8 0 10
-262144 -1 -1 67 256;
#X obj 473 303 sig~;
#X text 462 247 center frequency;
#X text 590 287 q;
#X floatatom 473 274 5 0 0 0 - - -, f 5;
#X floatatom 569 306 5 0 0 0 - - -, f 5;
#X obj 436 367 vcf~ 1;
#X text 506 359 optional argument to initialize q;
#X obj 563 148 nbx 5 14 -1e+37 1e+37 0 0 empty empty empty 0 -8 0 10
-262144 -1 -1 323 256;
#X connect 0 0 15 0;
#X connect 1 0 2 0;
#X connect 1 1 2 1;
#X connect 2 0 3 0;
#X connect 2 1 0 0;
#X connect 3 0 8 0;
#X connect 3 0 11 0;
#X connect 6 0 9 0;
#X connect 7 0 6 0;
#X connect 7 1 5 0;
#X connect 11 0 12 0;
#X connect 11 0 10 0;
#X connect 11 0 20 0;
#X connect 14 0 13 0;
#X connect 14 0 13 1;
#X connect 17 0 22 1;
#X connect 20 0 17 0;
#X connect 20 0 30 0;
#X connect 21 0 22 2;
#X connect 22 0 32 0;
#X connect 24 0 22 0;
#X connect 25 0 14 0;
#X connect 26 0 25 1;
#X connect 27 0 32 1;
#X connect 30 0 27 0;
#X connect 31 0 32 2;
#X connect 32 0 25 0;
#X connect 34 0 21 0;
#X connect 34 0 31 0;
