#N canvas 686 153 857 533 10;
#X obj 15 25 vsl 12 96 -1 1 0 1 \$0-1 \$0-1 empty 4 104 2 10 #fcfcc8
#782814 #000000 4750 0;
#X obj 27 25 vsl 12 96 -1 1 0 1 \$0-2 \$0-2 empty 4 104 2 10 #d8fcd8
#285014 #000000 4750 0;
#X obj 39 25 vsl 12 96 -1 1 0 1 \$0-3 \$0-3 empty 4 104 2 10 #d8fcd8
#285014 #000000 4750 0;
#X obj 51 25 vsl 12 96 -1 1 0 1 \$0-4 \$0-4 empty 4 104 2 10 #d8fcd8
#285014 #000000 4750 0;
#X obj 63 25 vsl 12 96 -1 1 0 1 \$0-5 \$0-5 empty 4 104 2 10 #d8fcd8
#285014 #000000 4750 0;
#X obj 75 25 vsl 12 96 -1 1 0 1 \$0-6 \$0-6 empty 4 104 2 10 #d8fcd8
#285014 #000000 4750 0;
#X obj 87 25 vsl 12 96 -1 1 0 1 \$0-7 \$0-7 empty 4 104 2 10 #d8fcd8
#285014 #000000 4750 0;
#X obj 99 25 vsl 12 96 -1 1 0 1 \$0-8 \$0-8 empty 4 104 2 10 #d8fcd8
#285014 #000000 4750 0;
#X obj 111 25 vsl 12 96 -1 1 0 1 \$0-9 \$0-9 empty 4 104 2 10 #fcfcc8
#782814 #000000 4750 0;
#X obj 123 25 vsl 12 96 -1 1 0 1 \$0-10 \$0-10 empty 1 104 2 10 #d8fcd8
#285014 #000000 4750 0;
#X obj 135 25 vsl 12 96 -1 1 0 1 \$0-11 \$0-11 empty 1 104 2 10 #d8fcd8
#285014 #000000 4750 0;
#X obj 147 25 vsl 12 96 -1 1 0 1 \$0-12 \$0-12 empty 1 104 2 10 #d8fcd8
#285014 #000000 4750 0;
#X obj 159 25 vsl 12 96 -1 1 0 1 \$0-13 \$0-13 empty 1 104 2 10 #d8fcd8
#285014 #000000 4750 0;
#X obj 171 25 vsl 12 96 -1 1 0 1 \$0-14 \$0-14 empty 1 104 2 10 #d8fcd8
#285014 #000000 4750 0;
#X obj 183 25 vsl 12 96 -1 1 0 1 \$0-15 \$0-15 empty 1 104 2 10 #d8fcd8
#285014 #000000 4750 0;
#X obj 195 25 vsl 12 96 -1 1 0 1 \$0-16 \$0-16 empty 1 104 2 10 #d8fcd8
#285014 #000000 4750 0;
#X obj 215 20 cnv 15 150 106 empty empty empty 20 12 0 14 #a99274 #404040
0;
#N canvas 0 22 450 300 (subpatch) 0;
#X array \$0-array 4099 float 6 #6f3f3f #312641;
#X coords 0 1 4099 -1 140 96 1;
#X restore 221 25 graph;
#X obj 17 150 r \$0-1;
#X obj 66 149 r \$0-2;
#X obj 115 148 r \$0-3;
#X obj 163 148 r \$0-4;
#X obj 210 148 r \$0-5;
#X obj 258 148 r \$0-6;
#X obj 307 148 r \$0-7;
#X obj 355 148 r \$0-8;
#X obj 404 148 r \$0-9;
#X obj 451 148 r \$0-10;
#X obj 506 148 r \$0-11;
#X obj 561 148 r \$0-12;
#X obj 615 148 r \$0-13;
#X obj 668 148 r \$0-14;
#X obj 721 148 r \$0-15;
#X obj 774 148 r \$0-16;
#X msg 231 333 \; \$1 sinesum 4096 \$2 \$3 \$4 \$5 \$6 \$7 \$8 \$9
\$10 \$11 \$12 \$13 \$14 \$15 \$16 \$17 \; \$1 normalize;
#X obj 231 310 pack s f f f f f f f f f f f f f f f f;
#X obj 17 171 t b f;
#X obj 211 168 t b f;
#X obj 404 168 t b f;
#X obj 615 169 t b f;
#X obj 66 170 t b f;
#X obj 258 169 t b f;
#X obj 451 168 t b f;
#X obj 668 169 t b f;
#X obj 115 169 t b f;
#X obj 307 169 t b f;
#X obj 506 168 t b f;
#X obj 721 169 t b f;
#X obj 163 168 t b f;
#X obj 355 168 t b f;
#X obj 561 167 t b f;
#X obj 774 168 t b f;
#X obj 23 242 symbol \$0-array;
#X obj 640 290 inlet~;
#X obj 640 370 outlet~;
#X obj 640 330 tabosc4~ \$0-array;
#X obj 190 340 print;
#X obj 20 470 s \$0-1;
#X obj 69 469 s \$0-2;
#X obj 120 470 s \$0-3;
#X obj 166 468 s \$0-4;
#X obj 213 468 s \$0-5;
#X obj 261 468 s \$0-6;
#X obj 310 468 s \$0-7;
#X obj 358 468 s \$0-8;
#X obj 410 470 s \$0-9;
#X obj 454 468 s \$0-10;
#X obj 509 468 s \$0-11;
#X obj 564 468 s \$0-12;
#X obj 618 468 s \$0-13;
#X obj 671 468 s \$0-14;
#X obj 721 469 s \$0-15;
#X obj 777 468 s \$0-16;
#X obj 20 370 loadbang;
#X obj 20 400 0;
#N canvas 69 74 892 801 presets 0;
#X obj 30 560 s \$0-1;
#X obj 79 559 s \$0-2;
#X obj 130 560 s \$0-3;
#X obj 176 558 s \$0-4;
#X obj 223 558 s \$0-5;
#X obj 271 558 s \$0-6;
#X obj 320 558 s \$0-7;
#X obj 368 558 s \$0-8;
#X obj 420 560 s \$0-9;
#X obj 464 558 s \$0-10;
#X obj 519 558 s \$0-11;
#X obj 574 558 s \$0-12;
#X obj 628 558 s \$0-13;
#X obj 681 558 s \$0-14;
#X obj 731 559 s \$0-15;
#X obj 787 558 s \$0-16;
#X obj 31 520 0.305263;
#X obj 96 520 0.0105263;
#X obj 166 520 0.0842105;
#X obj 32 453 r \$0-preset-square;
#X obj 28 397 s \$0-1;
#X obj 77 396 s \$0-2;
#X obj 128 397 s \$0-3;
#X obj 174 395 s \$0-4;
#X obj 221 395 s \$0-5;
#X obj 269 395 s \$0-6;
#X obj 318 395 s \$0-7;
#X obj 366 395 s \$0-8;
#X obj 418 397 s \$0-9;
#X obj 462 395 s \$0-10;
#X obj 517 395 s \$0-11;
#X obj 572 395 s \$0-12;
#X obj 626 395 s \$0-13;
#X obj 679 395 s \$0-14;
#X obj 729 396 s \$0-15;
#X obj 785 395 s \$0-16;
#X obj 404 357 0;
#X obj 434 357 0;
#X obj 464 357 0;
#X obj 494 357 0;
#X obj 524 357 0;
#X obj 554 357 0;
#X obj 584 357 0;
#X obj 614 357 0;
#X obj 644 357 0;
#X obj 674 357 0;
#X obj 30 290 r \$0-preset-sawtooth;
#X obj 29 357 0.778947;
#X obj 94 357 0.368421;
#X obj 164 357 0.189474;
#X obj 234 357 0.168421;
#X obj 304 357 0.0736842;
#X obj 374 357 0.0526316;
#X obj 280 520 0.0736842;
#X obj 385 520 0.0526316;
#X obj 455 520 0;
#X obj 485 520 0;
#X obj 515 520 0;
#X obj 545 520 0;
#X obj 575 520 0;
#X obj 605 520 0;
#X obj 635 520 0;
#X obj 665 520 0;
#X obj 695 520 0;
#X obj 240 520 0;
#X obj 350 520 0;
#X connect 16 0 0 0;
#X connect 17 0 1 0;
#X connect 18 0 2 0;
#X connect 19 0 16 0;
#X connect 19 0 18 0;
#X connect 19 0 17 0;
#X connect 19 0 64 0;
#X connect 19 0 65 0;
#X connect 19 0 63 0;
#X connect 19 0 62 0;
#X connect 19 0 61 0;
#X connect 19 0 60 0;
#X connect 19 0 59 0;
#X connect 19 0 58 0;
#X connect 19 0 57 0;
#X connect 19 0 56 0;
#X connect 19 0 55 0;
#X connect 19 0 54 0;
#X connect 19 0 53 0;
#X connect 36 0 26 0;
#X connect 37 0 27 0;
#X connect 38 0 28 0;
#X connect 39 0 29 0;
#X connect 40 0 30 0;
#X connect 41 0 31 0;
#X connect 42 0 32 0;
#X connect 43 0 33 0;
#X connect 44 0 34 0;
#X connect 45 0 35 0;
#X connect 46 0 45 0;
#X connect 46 0 44 0;
#X connect 46 0 43 0;
#X connect 46 0 42 0;
#X connect 46 0 41 0;
#X connect 46 0 40 0;
#X connect 46 0 39 0;
#X connect 46 0 38 0;
#X connect 46 0 37 0;
#X connect 46 0 36 0;
#X connect 46 0 47 0;
#X connect 46 0 48 0;
#X connect 46 0 49 0;
#X connect 46 0 50 0;
#X connect 46 0 51 0;
#X connect 46 0 52 0;
#X connect 47 0 20 0;
#X connect 48 0 21 0;
#X connect 49 0 22 0;
#X connect 50 0 23 0;
#X connect 51 0 24 0;
#X connect 52 0 25 0;
#X connect 53 0 4 0;
#X connect 54 0 6 0;
#X connect 55 0 7 0;
#X connect 56 0 8 0;
#X connect 57 0 9 0;
#X connect 58 0 10 0;
#X connect 59 0 11 0;
#X connect 60 0 12 0;
#X connect 61 0 13 0;
#X connect 62 0 14 0;
#X connect 63 0 15 0;
#X connect 64 0 3 0;
#X connect 65 0 5 0;
#X restore 380 60 pd presets;
#X msg 100 7 square;
#X msg 150 7 sawtooth;
#X obj 380 30 s \$0-preset-square;
#X obj 500 30 s \$0-preset-sawtooth;
#X obj 380 10 bng 15 250 50 0 empty empty empty 17 7 0 10 #fcfcfc #000000
#000000;
#X obj 500 10 bng 15 250 50 0 empty empty empty 17 7 0 10 #fcfcfc #000000
#000000;
#X connect 18 0 36 0;
#X connect 19 0 40 0;
#X connect 20 0 44 0;
#X connect 21 0 48 0;
#X connect 22 0 37 0;
#X connect 23 0 41 0;
#X connect 24 0 45 0;
#X connect 25 0 49 0;
#X connect 26 0 38 0;
#X connect 27 0 42 0;
#X connect 28 0 46 0;
#X connect 29 0 50 0;
#X connect 30 0 39 0;
#X connect 31 0 43 0;
#X connect 32 0 47 0;
#X connect 33 0 51 0;
#X connect 35 0 34 0;
#X connect 35 0 56 0;
#X connect 36 0 52 0;
#X connect 36 1 35 1;
#X connect 37 0 52 0;
#X connect 37 1 35 5;
#X connect 38 0 52 0;
#X connect 38 1 35 9;
#X connect 39 0 52 0;
#X connect 39 1 35 13;
#X connect 40 0 52 0;
#X connect 40 1 35 2;
#X connect 41 0 52 0;
#X connect 41 1 35 6;
#X connect 42 0 52 0;
#X connect 42 1 35 10;
#X connect 43 0 52 0;
#X connect 43 1 35 14;
#X connect 44 0 52 0;
#X connect 44 1 35 3;
#X connect 45 0 52 0;
#X connect 45 1 35 7;
#X connect 46 0 52 0;
#X connect 46 1 35 11;
#X connect 47 0 52 0;
#X connect 47 1 35 15;
#X connect 48 0 52 0;
#X connect 48 1 35 4;
#X connect 49 0 52 0;
#X connect 49 1 35 8;
#X connect 50 0 52 0;
#X connect 50 1 35 12;
#X connect 51 0 52 0;
#X connect 51 1 35 16;
#X connect 52 0 35 0;
#X connect 53 0 55 0;
#X connect 55 0 54 0;
#X connect 73 0 74 0;
#X connect 74 0 57 0;
#X connect 74 0 72 0;
#X connect 74 0 71 0;
#X connect 74 0 70 0;
#X connect 74 0 69 0;
#X connect 74 0 68 0;
#X connect 74 0 67 0;
#X connect 74 0 66 0;
#X connect 74 0 65 0;
#X connect 74 0 64 0;
#X connect 74 0 63 0;
#X connect 74 0 62 0;
#X connect 74 0 61 0;
#X connect 74 0 60 0;
#X connect 74 0 59 0;
#X connect 74 0 58 0;
#X connect 76 0 80 0;
#X connect 77 0 81 0;
#X connect 80 0 78 0;
#X connect 81 0 79 0;
#X coords 0 -1 1 1 360 125 1 10 5;
