#N canvas 0 69 1600 806 12;
#X obj 990 920 mixer~;
#X obj 70 10 nbx 5 47 -1e+37 1e+37 0 0 empty empty empty 0 -8 0 10
#fcfcfc #000000 #000000 121 256 0;
#X obj 50 860 steeldrum-32;
#X obj 50 80 ecktribe_voice-32;
#X obj 50 340 ecktribe_voice-32;
#X obj 50 600 ecktribe_voice-32;
#X connect 1 0 2 0;
#X connect 1 0 3 0;
#X connect 1 0 4 0;
#X connect 1 0 5 0;
#X connect 2 0 0 0;
#X connect 3 0 0 1;
#X connect 3 2 2 2;
#X connect 3 2 4 2;
#X connect 4 0 0 2;
#X connect 4 2 5 2;
#X connect 5 0 0 3;
