#N canvas 208 131 1392 665 12;
#X obj 109 451 metro;
#X obj 162 454 nbx 5 14 -1e+37 1e+37 0 0 empty empty empty 0 -8 0 10
#fcfcfc #000000 #000000 1 256 0;
#X obj 184 215 tgl 15 0 empty empty Rnd -2 6 0 10 #fcfcfc #000000 #000000
0 1;
#X obj 109 481 f;
#X obj 143 481 + 1;
#X obj 203 339 loadbang;
#X obj 203 362 1;
#X obj 385 465 f;
#X obj 419 465 + 1;
#X obj 51 590 tabwrite \$0-seq_loop;
#X obj 107 513 t f b f;
#X obj 148 338 t b f;
#X msg 148 363 0;
#X obj 390 500 t f f;
#X msg 17 432 0;
#X obj 389 413 metro;
#X obj 147 197 nbx 5 14 -1e+37 1e+37 0 0 empty empty ms/beat -43 6
0 10 #fcfcfc #000000 #000000 0 256 0;
#X obj 164 177 tgl 15 0 empty empty ply -20 6 0 10 #fcfcfc #000000
#000000 0 1;
#X obj 184 177 bng 15 50 10 0 empty empty empty 17 7 0 10 #fcfcfc #000000
#000000;
#X obj 128 215 nbx 5 14 -1e+37 1e+37 0 0 empty empty low# -23 5 0 10
#fcfcfc #000000 #000000 0 256 0;
#X obj 280 520 +;
#X obj 390 340 moses 1;
#X obj 240 560 sig~;
#X obj 240 588 outlet~;
#X obj 330 588 outlet;
#X obj 51 557 random 44;
#X obj 420 600 outlet;
#X obj 147 50 inlet;
#X obj 190 50 t f f;
#X obj 100 50 inlet;
#X obj 220 120 vradio 15 0 0 12 empty empty empty 0 -8 0 10 #a9a1a1
#000000 #000000 0;
#X obj 236 120 vradio 15 0 0 12 empty empty empty 0 -8 0 10 #fcfcfc
#000000 #000000 0;
#X obj 252 120 vradio 15 0 0 12 empty empty empty 0 -8 0 10 #fcfcfc
#000000 #000000 0;
#X obj 268 120 vradio 15 0 0 12 empty empty empty 0 -8 0 10 #fcfcfc
#000000 #000000 0;
#X obj 284 120 vradio 15 0 0 12 empty empty empty 0 -8 0 10 #b0a8a8
#000000 #000000 0;
#X obj 300 120 vradio 15 0 0 12 empty empty empty 0 -8 0 10 #fcfcfc
#000000 #000000 0;
#X obj 316 120 vradio 15 0 0 12 empty empty empty 0 -8 0 10 #fcfcfc
#000000 #000000 0;
#X obj 332 120 vradio 15 0 0 12 empty empty empty 0 -8 0 10 #fcfcfc
#000000 #000000 0;
#X obj 364 120 vradio 15 0 0 12 empty empty empty 0 -8 0 10 #fcfcfc
#000000 #000000 0;
#X obj 380 120 vradio 15 0 0 12 empty empty empty 0 -8 0 10 #fcfcfc
#000000 #000000 0;
#X obj 396 120 vradio 15 0 0 12 empty empty empty 0 -8 0 10 #fcfcfc
#000000 #000000 0;
#X obj 428 120 vradio 15 0 0 12 empty empty empty 0 -8 0 10 #fcfcfc
#000000 #000000 0;
#X obj 444 120 vradio 15 0 0 12 empty empty empty 0 -8 0 10 #fcfcfc
#000000 #000000 0;
#X obj 460 120 vradio 15 0 0 12 empty empty empty 0 -8 0 10 #fcfcfc
#000000 #000000 0;
#X obj 492 120 vradio 15 0 0 12 empty empty empty 0 -8 0 10 #fcfcfc
#000000 #000000 0;
#X obj 508 120 vradio 15 0 0 12 empty empty empty 0 -8 0 10 #fcfcfc
#000000 #000000 0;
#X obj 524 120 vradio 15 0 0 12 empty empty empty 0 -8 0 10 #fcfcfc
#000000 #000000 0;
#X obj 556 120 vradio 15 0 0 12 empty empty empty 0 -8 0 10 #fcfcfc
#000000 #000000 0;
#X obj 572 120 vradio 15 0 0 12 empty empty empty 0 -8 0 10 #fcfcfc
#000000 #000000 0;
#X obj 588 120 vradio 15 0 0 12 empty empty empty 0 -8 0 10 #fcfcfc
#000000 #000000 0;
#X obj 620 120 vradio 15 0 0 12 empty empty empty 0 -8 0 10 #fcfcfc
#000000 #000000 0;
#X obj 636 120 vradio 15 0 0 12 empty empty empty 0 -8 0 10 #fcfcfc
#000000 #000000 0;
#X obj 652 120 vradio 15 0 0 12 empty empty empty 0 -8 0 10 #fcfcfc
#000000 #000000 0;
#X obj 684 120 vradio 15 0 0 12 empty empty empty 0 -8 0 10 #fcfcfc
#000000 #000000 0;
#X obj 700 120 vradio 15 0 0 12 empty empty empty 0 -8 0 10 #fcfcfc
#000000 #000000 0;
#X obj 716 120 vradio 15 0 0 12 empty empty empty 0 -8 0 10 #fcfcfc
#000000 #000000 0;
#X obj 348 120 vradio 15 0 0 12 empty empty empty 0 -8 0 10 #a9a1a1
#000000 #000000 0;
#X obj 412 120 vradio 15 0 0 12 empty empty empty 0 -8 0 10 #b0a8a8
#000000 #000000 0;
#X obj 476 120 vradio 15 0 0 12 empty empty empty 0 -8 0 10 #a9a1a1
#000000 #000000 0;
#X obj 540 120 vradio 15 0 0 12 empty empty empty 0 -8 0 10 #b0a8a8
#000000 #000000 0;
#X obj 604 120 vradio 15 0 0 12 empty empty empty 0 -8 0 10 #a9a1a1
#000000 #000000 0;
#X obj 668 120 vradio 15 0 0 12 empty empty empty 0 -8 0 10 #b0a8a8
#000000 #000000 0;
#X obj 220 104 bng 15 250 50 0 empty empty empty 17 7 0 10 #fcfcfc
#000000 #000000;
#X obj 236 104 bng 15 250 50 0 empty empty empty 17 7 0 10 #fcfcfc
#000000 #000000;
#X obj 252 104 bng 15 250 50 0 empty empty empty 17 7 0 10 #fcfcfc
#000000 #000000;
#X obj 268 104 bng 15 250 50 0 empty empty empty 17 7 0 10 #fcfcfc
#000000 #000000;
#X obj 284 104 bng 15 250 50 0 empty empty empty 17 7 0 10 #fcfcfc
#000000 #000000;
#X obj 300 104 bng 15 250 50 0 empty empty empty 17 7 0 10 #fcfcfc
#000000 #000000;
#X obj 316 104 bng 15 250 50 0 empty empty empty 17 7 0 10 #fcfcfc
#000000 #000000;
#X obj 332 104 bng 15 250 50 0 empty empty empty 17 7 0 10 #fcfcfc
#000000 #000000;
#X obj 348 104 bng 15 250 50 0 empty empty empty 17 7 0 10 #fcfcfc
#000000 #000000;
#X obj 364 104 bng 15 250 50 0 empty empty empty 17 7 0 10 #fcfcfc
#000000 #000000;
#X obj 380 104 bng 15 250 50 0 empty empty empty 17 7 0 10 #fcfcfc
#000000 #000000;
#X obj 396 104 bng 15 250 50 0 empty empty empty 17 7 0 10 #fcfcfc
#000000 #000000;
#X obj 412 104 bng 15 250 50 0 empty empty empty 17 7 0 10 #fcfcfc
#000000 #000000;
#X obj 428 104 bng 15 250 50 0 empty empty empty 17 7 0 10 #fcfcfc
#000000 #000000;
#X obj 444 104 bng 15 250 50 0 empty empty empty 17 7 0 10 #fcfcfc
#000000 #000000;
#X obj 460 104 bng 15 250 50 0 empty empty empty 17 7 0 10 #fcfcfc
#000000 #000000;
#X obj 476 104 bng 15 250 50 0 empty empty empty 17 7 0 10 #fcfcfc
#000000 #000000;
#X obj 492 104 bng 15 250 50 0 empty empty empty 17 7 0 10 #fcfcfc
#000000 #000000;
#X obj 508 104 bng 15 250 50 0 empty empty empty 17 7 0 10 #fcfcfc
#000000 #000000;
#X obj 524 104 bng 15 250 50 0 empty empty empty 17 7 0 10 #fcfcfc
#000000 #000000;
#X obj 540 104 bng 15 250 50 0 empty empty empty 17 7 0 10 #fcfcfc
#000000 #000000;
#X obj 556 104 bng 15 250 50 0 empty empty empty 17 7 0 10 #fcfcfc
#000000 #000000;
#X obj 572 104 bng 15 250 50 0 empty empty empty 17 7 0 10 #fcfcfc
#000000 #000000;
#X obj 588 104 bng 15 250 50 0 empty empty empty 17 7 0 10 #fcfcfc
#000000 #000000;
#X obj 604 104 bng 15 250 50 0 empty empty empty 17 7 0 10 #fcfcfc
#000000 #000000;
#X obj 620 104 bng 15 250 50 0 empty empty empty 17 7 0 10 #fcfcfc
#000000 #000000;
#X obj 636 104 bng 15 250 50 0 empty empty empty 17 7 0 10 #fcfcfc
#000000 #000000;
#X obj 652 104 bng 15 250 50 0 empty empty empty 17 7 0 10 #fcfcfc
#000000 #000000;
#X obj 668 104 bng 15 250 50 0 empty empty empty 17 7 0 10 #fcfcfc
#000000 #000000;
#X obj 684 104 bng 15 250 50 0 empty empty empty 17 7 0 10 #fcfcfc
#000000 #000000;
#X obj 700 104 bng 15 250 50 0 empty empty empty 17 7 0 10 #fcfcfc
#000000 #000000;
#X obj 716 104 bng 15 250 50 0 empty empty empty 17 7 0 10 #fcfcfc
#000000 #000000;
#X obj 19 404 select 32;
#X obj 510 600 outlet;
#X obj 553 539 expr (60 / ($f1 * 4)) * 1000;
#X obj 602 459 / 1;
#X obj 530 360 t f f;
#X obj 650 590 outlet;
#X obj 750 50 inlet;
#X obj 120 120 nbx 3 30 -1e+37 1e+37 0 0 empty empty empty 0 -8 0 10
#fcfcfc #000000 #000000 0 256 0;
#X msg 469 499 1;
#X msg 530 410 1;
#X obj 250 40 route 1 2 3 4 5 6 7 8 9 10 11 12 13 14 15 16 17 18 19
20 21 22 23 24 25 26 27 28 29 30 31 32;
#X obj 470 470 select 33;
#X obj 204 120 vradio 15 1 0 12 empty empty empty 0 -8 0 10 #645e04
#bbbbbb #ffffff 0;
#X obj 879 175 f;
#X obj 913 175 + 1;
#X obj 884 210 t f f;
#X msg 963 209 1;
#X obj 964 180 select 33;
#N canvas 1 179 1586 306 line-set 0;
#X obj 125 15 t b f;
#X msg 67 73 set \$1;
#X msg 123 72 set \$1;
#X msg 176 71 set \$1;
#X msg 232 70 set \$1;
#X msg 286 70 set \$1;
#X msg 342 69 set \$1;
#X msg 395 68 set \$1;
#X msg 451 67 set \$1;
#X obj 533 54 t b f;
#X msg 475 112 set \$1;
#X msg 531 111 set \$1;
#X msg 584 110 set \$1;
#X msg 640 109 set \$1;
#X msg 694 109 set \$1;
#X msg 750 108 set \$1;
#X msg 803 107 set \$1;
#X msg 859 106 set \$1;
#X obj 770 10 t b f;
#X msg 712 68 set \$1;
#X msg 768 67 set \$1;
#X msg 821 66 set \$1;
#X msg 877 65 set \$1;
#X msg 931 65 set \$1;
#X msg 987 64 set \$1;
#X msg 1040 63 set \$1;
#X msg 1096 62 set \$1;
#X obj 1178 49 t b f;
#X msg 1120 107 set \$1;
#X msg 1176 106 set \$1;
#X msg 1229 105 set \$1;
#X msg 1285 104 set \$1;
#X msg 1339 104 set \$1;
#X msg 1395 103 set \$1;
#X msg 1448 102 set \$1;
#X msg 1502 105 set \$1;
#X obj 22 228 outlet;
#X obj 70 228 outlet;
#X obj 118 227 outlet;
#X obj 166 227 outlet;
#X obj 212 227 outlet;
#X obj 260 227 outlet;
#X obj 308 226 outlet;
#X obj 356 226 outlet;
#X obj 403 225 outlet;
#X obj 451 225 outlet;
#X obj 499 224 outlet;
#X obj 547 224 outlet;
#X obj 593 224 outlet;
#X obj 641 224 outlet;
#X obj 689 223 outlet;
#X obj 737 223 outlet;
#X obj 786 223 outlet;
#X obj 834 223 outlet;
#X obj 882 222 outlet;
#X obj 930 222 outlet;
#X obj 976 222 outlet;
#X obj 1024 222 outlet;
#X obj 1072 221 outlet;
#X obj 1120 221 outlet;
#X obj 1167 220 outlet;
#X obj 1215 220 outlet;
#X obj 1263 219 outlet;
#X obj 1311 219 outlet;
#X obj 1357 219 outlet;
#X obj 1405 219 outlet;
#X obj 1453 218 outlet;
#X obj 1501 218 outlet;
#X obj 21 21 inlet;
#X connect 0 1 1 0;
#X connect 0 1 2 0;
#X connect 0 1 3 0;
#X connect 0 1 4 0;
#X connect 0 1 5 0;
#X connect 0 1 6 0;
#X connect 0 1 7 0;
#X connect 0 1 8 0;
#X connect 0 1 9 0;
#X connect 1 0 36 0;
#X connect 2 0 37 0;
#X connect 3 0 38 0;
#X connect 4 0 39 0;
#X connect 5 0 40 0;
#X connect 6 0 41 0;
#X connect 7 0 42 0;
#X connect 8 0 43 0;
#X connect 9 1 10 0;
#X connect 9 1 11 0;
#X connect 9 1 12 0;
#X connect 9 1 13 0;
#X connect 9 1 14 0;
#X connect 9 1 15 0;
#X connect 9 1 16 0;
#X connect 9 1 17 0;
#X connect 9 1 18 0;
#X connect 10 0 44 0;
#X connect 11 0 45 0;
#X connect 12 0 46 0;
#X connect 13 0 47 0;
#X connect 14 0 48 0;
#X connect 15 0 49 0;
#X connect 16 0 50 0;
#X connect 17 0 51 0;
#X connect 18 1 19 0;
#X connect 18 1 20 0;
#X connect 18 1 21 0;
#X connect 18 1 22 0;
#X connect 18 1 23 0;
#X connect 18 1 24 0;
#X connect 18 1 25 0;
#X connect 18 1 26 0;
#X connect 18 1 27 0;
#X connect 19 0 52 0;
#X connect 20 0 53 0;
#X connect 21 0 54 0;
#X connect 22 0 55 0;
#X connect 23 0 56 0;
#X connect 24 0 57 0;
#X connect 25 0 58 0;
#X connect 26 0 59 0;
#X connect 27 1 28 0;
#X connect 27 1 29 0;
#X connect 27 1 30 0;
#X connect 27 1 31 0;
#X connect 27 1 32 0;
#X connect 27 1 33 0;
#X connect 27 1 34 0;
#X connect 27 1 35 0;
#X connect 28 0 60 0;
#X connect 29 0 61 0;
#X connect 30 0 62 0;
#X connect 31 0 63 0;
#X connect 32 0 64 0;
#X connect 33 0 65 0;
#X connect 34 0 66 0;
#X connect 35 0 67 0;
#X connect 68 0 0 0;
#X restore 790 80 pd line-set;
#X connect 0 0 3 0;
#X connect 1 0 0 1;
#X connect 2 0 0 0;
#X connect 3 0 4 0;
#X connect 3 0 10 0;
#X connect 4 0 3 1;
#X connect 5 0 6 0;
#X connect 6 0 1 0;
#X connect 7 0 8 0;
#X connect 7 0 13 0;
#X connect 8 0 7 1;
#X connect 10 0 94 0;
#X connect 10 1 25 0;
#X connect 10 2 9 1;
#X connect 11 0 12 0;
#X connect 11 1 3 0;
#X connect 12 0 2 0;
#X connect 13 0 101 0;
#X connect 13 0 104 0;
#X connect 13 0 105 0;
#X connect 13 1 26 0;
#X connect 14 0 11 0;
#X connect 15 0 7 0;
#X connect 16 0 95 0;
#X connect 16 0 97 0;
#X connect 17 0 98 0;
#X connect 19 0 20 1;
#X connect 20 0 22 0;
#X connect 20 0 24 0;
#X connect 21 1 20 0;
#X connect 22 0 23 0;
#X connect 25 0 9 0;
#X connect 27 0 28 0;
#X connect 28 1 104 0;
#X connect 29 0 16 0;
#X connect 30 0 21 0;
#X connect 31 0 21 0;
#X connect 32 0 21 0;
#X connect 33 0 21 0;
#X connect 34 0 21 0;
#X connect 35 0 21 0;
#X connect 36 0 21 0;
#X connect 37 0 21 0;
#X connect 38 0 21 0;
#X connect 39 0 21 0;
#X connect 40 0 21 0;
#X connect 41 0 21 0;
#X connect 42 0 21 0;
#X connect 43 0 21 0;
#X connect 44 0 21 0;
#X connect 45 0 21 0;
#X connect 46 0 21 0;
#X connect 47 0 21 0;
#X connect 48 0 21 0;
#X connect 49 0 21 0;
#X connect 50 0 21 0;
#X connect 51 0 21 0;
#X connect 52 0 21 0;
#X connect 53 0 21 0;
#X connect 54 0 21 0;
#X connect 55 0 21 0;
#X connect 56 0 21 0;
#X connect 57 0 21 0;
#X connect 58 0 21 0;
#X connect 59 0 21 0;
#X connect 60 0 21 0;
#X connect 61 0 21 0;
#X connect 62 0 30 0;
#X connect 63 0 31 0;
#X connect 64 0 32 0;
#X connect 65 0 33 0;
#X connect 66 0 34 0;
#X connect 67 0 35 0;
#X connect 68 0 36 0;
#X connect 69 0 37 0;
#X connect 70 0 56 0;
#X connect 71 0 38 0;
#X connect 72 0 39 0;
#X connect 73 0 40 0;
#X connect 74 0 57 0;
#X connect 75 0 41 0;
#X connect 76 0 42 0;
#X connect 77 0 43 0;
#X connect 78 0 58 0;
#X connect 79 0 44 0;
#X connect 80 0 45 0;
#X connect 81 0 46 0;
#X connect 82 0 59 0;
#X connect 83 0 47 0;
#X connect 84 0 48 0;
#X connect 85 0 49 0;
#X connect 86 0 60 0;
#X connect 87 0 50 0;
#X connect 88 0 51 0;
#X connect 89 0 52 0;
#X connect 90 0 61 0;
#X connect 91 0 53 0;
#X connect 92 0 54 0;
#X connect 93 0 55 0;
#X connect 94 0 14 0;
#X connect 96 0 15 1;
#X connect 97 0 96 0;
#X connect 98 0 103 0;
#X connect 98 1 15 0;
#X connect 98 1 99 0;
#X connect 100 0 17 0;
#X connect 102 0 7 0;
#X connect 103 0 8 0;
#X connect 103 0 7 1;
#X connect 103 0 7 0;
#X connect 104 0 62 0;
#X connect 104 1 63 0;
#X connect 104 2 64 0;
#X connect 104 3 65 0;
#X connect 104 4 66 0;
#X connect 104 5 67 0;
#X connect 104 6 68 0;
#X connect 104 7 69 0;
#X connect 104 8 70 0;
#X connect 104 9 71 0;
#X connect 104 10 72 0;
#X connect 104 11 73 0;
#X connect 104 12 74 0;
#X connect 104 13 75 0;
#X connect 104 14 76 0;
#X connect 104 15 77 0;
#X connect 104 16 78 0;
#X connect 104 17 79 0;
#X connect 104 18 80 0;
#X connect 104 19 81 0;
#X connect 104 20 82 0;
#X connect 104 21 83 0;
#X connect 104 22 84 0;
#X connect 104 23 85 0;
#X connect 104 24 86 0;
#X connect 104 25 87 0;
#X connect 104 26 88 0;
#X connect 104 27 89 0;
#X connect 104 28 90 0;
#X connect 104 29 91 0;
#X connect 104 30 92 0;
#X connect 104 31 93 0;
#X connect 105 0 102 0;
#X connect 106 0 112 0;
#X connect 107 0 108 0;
#X connect 107 0 109 0;
#X connect 108 0 107 1;
#X connect 109 0 111 0;
#X connect 110 0 107 0;
#X connect 111 0 110 0;
#X connect 112 0 30 0;
#X connect 112 1 31 0;
#X connect 112 2 32 0;
#X connect 112 3 33 0;
#X connect 112 4 34 0;
#X connect 112 5 35 0;
#X connect 112 6 36 0;
#X connect 112 7 37 0;
#X connect 112 8 56 0;
#X connect 112 9 38 0;
#X connect 112 10 39 0;
#X connect 112 11 40 0;
#X connect 112 12 57 0;
#X connect 112 13 41 0;
#X connect 112 14 42 0;
#X connect 112 15 43 0;
#X connect 112 16 58 0;
#X connect 112 17 44 0;
#X connect 112 18 45 0;
#X connect 112 19 46 0;
#X connect 112 20 59 0;
#X connect 112 21 47 0;
#X connect 112 22 48 0;
#X connect 112 23 49 0;
#X connect 112 24 60 0;
#X connect 112 25 50 0;
#X connect 112 26 51 0;
#X connect 112 27 52 0;
#X connect 112 28 61 0;
#X connect 112 29 53 0;
#X connect 112 30 54 0;
#X connect 112 31 55 0;
#X coords 0 -1 1 1 634 204 1 100 100;
