#N canvas 0 69 1600 806 12;
#X obj 109 451 metro;
#X obj 162 454 nbx 5 14 -1e+37 1e+37 0 0 empty empty empty 0 -8 0 10
#fcfcfc #000000 #000000 1 256 0;
#X obj 180 140 tgl 15 0 empty empty Rnd -2 6 0 10 #fcfcfc #000000 #000000
0 1;
#X obj 109 481 f;
#X obj 143 481 + 1;
#X obj 203 339 loadbang;
#X obj 203 362 1;
#X obj 385 465 f;
#X obj 419 465 + 1;
#X obj 51 590 tabwrite \$0-seq_loop;
#X obj 107 513 t f b f;
#X obj 383 535 tabread \$0-seq_loop;
#X obj 148 338 t b f;
#X msg 148 363 0;
#X obj 385 490 t f f;
#X obj 282 380 select 16;
#X obj 19 404 select 16;
#X msg 17 432 0;
#X msg 281 409 0;
#X obj 389 413 metro;
#X obj 143 120 nbx 5 14 -1e+37 1e+37 0 0 empty empty ms/beat -43 6
0 10 #fcfcfc #000000 #000000 123 256 0;
#X obj 160 102 tgl 15 0 empty empty ply -20 6 0 10 #fcfcfc #000000
#000000 1 1;
#X obj 180 102 bng 15 50 10 0 empty empty empty 17 7 0 10 #fcfcfc #000000
#000000;
#X obj 124 142 nbx 5 14 -1e+37 1e+37 0 0 empty empty low# -23 5 0 10
#fcfcfc #000000 #000000 123 256 0;
#X obj 280 540 +;
#X obj 380 250 route 0 1 2 3 4 5 6 7 8 9 10 11 12 13 14 15;
#X obj 200 200 bng 15 50 50 0 empty empty empty 17 7 0 10 #fcfcfc #000000
#000000;
#X obj 239 201 bng 15 50 50 0 empty empty empty 17 7 0 10 #fcfcfc #000000
#000000;
#X obj 277 200 bng 15 50 50 0 empty empty empty 17 7 0 10 #fcfcfc #000000
#000000;
#X obj 314 201 bng 15 50 50 0 empty empty empty 17 7 0 10 #fcfcfc #000000
#000000;
#X obj 351 200 bng 15 50 50 0 empty empty empty 17 7 0 10 #fcfcfc #000000
#000000;
#X obj 388 201 bng 15 50 50 0 empty empty empty 17 7 0 10 #fcfcfc #000000
#000000;
#X obj 426 201 bng 15 50 50 0 empty empty empty 17 7 0 10 #fcfcfc #000000
#000000;
#X obj 463 200 bng 15 50 50 0 empty empty empty 17 7 0 10 #fcfcfc #000000
#000000;
#X obj 500 201 bng 15 50 50 0 empty empty empty 17 7 0 10 #fcfcfc #000000
#000000;
#X obj 538 200 bng 15 50 50 0 empty empty empty 17 7 0 10 #fcfcfc #000000
#000000;
#X obj 575 201 bng 15 50 50 0 empty empty empty 17 7 0 10 #fcfcfc #000000
#000000;
#X obj 613 200 bng 15 50 20 0 empty empty empty 17 7 0 10 #fcfcfc #000000
#000000;
#X obj 651 201 bng 15 50 50 0 empty empty empty 17 7 0 10 #fcfcfc #000000
#000000;
#X obj 689 200 bng 15 50 50 0 empty empty empty 17 7 0 10 #fcfcfc #000000
#000000;
#X obj 730 200 bng 15 50 50 0 empty empty empty 17 7 0 10 #fcfcfc #000000
#000000;
#X obj 763 199 bng 15 50 50 0 empty empty empty 17 7 0 10 #fcfcfc #000000
#000000;
#X obj 230 530 bng 15 250 50 0 empty empty empty 17 7 0 10 #fcfcfc
#000000 #000000;
#X obj 300 490 moses 1;
#X obj 280 600 sig~;
#X obj 280 628 outlet~;
#X obj 390 610 outlet;
#X obj 640 440 / 44;
#X obj 640 400 100;
#X obj 650 490 nbx 5 14 -1e+37 1e+37 0 0 empty empty empty 0 -8 0 10
#fcfcfc #000000 #000000 0 256 0;
#X obj 650 350 bng 15 250 50 0 empty empty empty 17 7 0 10 #fcfcfc
#000000 #000000;
#X obj 200 110 cnv 15 600 2 empty empty empty 20 12 0 14 #e0e0e0 #404040
0;
#X obj 200 120 cnv 15 600 2 empty empty empty 20 12 0 14 #e0e0e0 #404040
0;
#X obj 200 130 cnv 15 600 2 empty empty empty 20 12 0 14 #e0e0e0 #404040
0;
#X obj 200 140 cnv 15 600 2 empty empty empty 20 12 0 14 #e0e0e0 #404040
0;
#X obj 200 150 cnv 15 600 2 empty empty empty 20 12 0 14 #e0e0e0 #404040
0;
#X obj 200 160 cnv 15 600 2 empty empty empty 20 12 0 14 #e0e0e0 #404040
0;
#X obj 200 170 cnv 15 600 2 empty empty empty 20 12 0 14 #e0e0e0 #404040
0;
#X obj 200 180 cnv 15 600 2 empty empty empty 20 12 0 14 #e0e0e0 #404040
0;
#X obj 200 190 cnv 15 600 2 empty empty empty 20 12 0 14 #e0e0e0 #404040
0;
#X obj 51 557 random 44;
#N canvas 2 18 1596 835 (subpatch) 0;
#X array \$0-seq_loop 16 float 23 #574747 black;
#A 0 32 0 0 0 0 0 17.1598 0 0 0 0 0 27.2797 0 0 0;
#X coords 0 44 16 0 600 100 1;
#X restore 200 100 graph;
#X obj 565 619 outlet;
#X obj 850 280 inlet;
#X obj 846 332 t f f;
#X obj 100 60 inlet;
#X obj 440 340 t f f;
#X msg 440 410 0;
#X connect 0 0 3 0;
#X connect 1 0 0 1;
#X connect 2 0 0 0;
#X connect 3 0 4 0;
#X connect 3 0 10 0;
#X connect 4 0 3 1;
#X connect 5 0 6 0;
#X connect 6 0 1 0;
#X connect 7 0 8 0;
#X connect 7 0 14 0;
#X connect 8 0 7 1;
#X connect 10 0 16 0;
#X connect 10 1 60 0;
#X connect 10 2 9 1;
#X connect 11 0 22 0;
#X connect 11 0 43 0;
#X connect 12 0 13 0;
#X connect 12 1 3 0;
#X connect 13 0 2 0;
#X connect 14 0 15 0;
#X connect 14 0 25 0;
#X connect 14 1 11 0;
#X connect 14 1 62 0;
#X connect 15 0 18 0;
#X connect 16 0 17 0;
#X connect 17 0 12 0;
#X connect 18 0 7 0;
#X connect 19 0 7 0;
#X connect 20 0 19 1;
#X connect 21 0 66 0;
#X connect 23 0 24 1;
#X connect 24 0 44 0;
#X connect 24 0 46 0;
#X connect 25 0 26 0;
#X connect 25 1 27 0;
#X connect 25 2 28 0;
#X connect 25 3 29 0;
#X connect 25 4 30 0;
#X connect 25 5 31 0;
#X connect 25 6 32 0;
#X connect 25 7 33 0;
#X connect 25 8 34 0;
#X connect 25 9 35 0;
#X connect 25 10 36 0;
#X connect 25 11 37 0;
#X connect 25 12 38 0;
#X connect 25 13 39 0;
#X connect 25 14 40 0;
#X connect 25 15 41 0;
#X connect 43 0 42 0;
#X connect 43 1 24 0;
#X connect 44 0 45 0;
#X connect 47 0 49 0;
#X connect 48 0 47 0;
#X connect 50 0 48 0;
#X connect 60 0 9 0;
#X connect 63 0 64 0;
#X connect 64 0 11 0;
#X connect 64 1 25 0;
#X connect 65 0 20 0;
#X connect 66 0 67 0;
#X connect 66 1 19 0;
#X connect 67 0 8 0;
#X connect 67 0 7 1;
#X connect 67 0 7 0;
#X coords 0 -1 1 1 700 120 1 100 100;
