#N canvas 669 200 931 615 12;
#X obj 280 258 metro;
#X obj 333 261 nbx 5 14 -1e+37 1e+37 0 0 empty empty empty 0 -8 0 10
#fcfcfc #000000 #000000 1 256 0;
#X obj 180 140 tgl 15 0 empty empty Rnd -2 6 0 10 #fcfcfc #000000 #000000
0 1;
#X obj 280 288 f;
#X obj 314 288 + 1;
#X obj 374 146 loadbang;
#X obj 374 169 1;
#X obj 471 147 print;
#X obj 556 272 f;
#X obj 590 272 + 1;
#X obj 222 397 tabwrite \$0-seq_loop;
#X obj 278 320 t f b f;
#X obj 554 342 tabread \$0-seq_loop;
#X obj 319 145 t b f;
#X msg 319 170 0;
#X obj 556 297 t f f;
#X obj 453 187 select 16;
#X obj 190 211 select 16;
#X obj 222 364 random 64;
#X msg 188 239 0;
#X msg 452 216 0;
#X obj 560 220 metro;
#X obj 143 120 nbx 5 14 -1e+37 1e+37 0 0 empty empty ms/beat -43 6
0 10 #fcfcfc #000000 #000000 237 256 0;
#X obj 160 100 tgl 15 0 empty empty ply -20 6 0 10 #fcfcfc #000000
#000000 1 1;
#X obj 180 100 bng 15 75 50 0 empty empty empty 17 7 0 10 #fcfcfc #000000
#000000;
#X obj 450 430 outlet;
#N canvas 0 0 450 300 (subpatch) 0;
#X array \$0-seq_loop 17 float 3 black black;
#A 0 51 49 35 2 53 0 3 15 15 36 52 13 54 2 18 34 25;
#X coords 0 64 17 0 100 54 1;
#X restore 198 103 graph;
#X obj 124 142 nbx 5 14 -1e+37 1e+37 0 0 empty empty low# -25 5 0 10
#fcfcfc #000000 #000000 33 256 0;
#X obj 447 387 +;
#X connect 0 0 3 0;
#X connect 1 0 0 1;
#X connect 2 0 0 0;
#X connect 3 0 4 0;
#X connect 3 0 11 0;
#X connect 4 0 3 1;
#X connect 5 0 6 0;
#X connect 6 0 1 0;
#X connect 8 0 9 0;
#X connect 8 0 15 0;
#X connect 9 0 8 1;
#X connect 11 0 17 0;
#X connect 11 1 18 0;
#X connect 11 2 10 1;
#X connect 12 0 24 0;
#X connect 12 0 28 0;
#X connect 13 0 14 0;
#X connect 13 1 3 0;
#X connect 14 0 2 0;
#X connect 15 0 16 0;
#X connect 15 1 12 0;
#X connect 16 0 20 0;
#X connect 17 0 19 0;
#X connect 18 0 10 0;
#X connect 19 0 13 0;
#X connect 20 0 8 0;
#X connect 21 0 8 0;
#X connect 22 0 21 1;
#X connect 23 0 21 0;
#X connect 27 0 28 1;
#X connect 28 0 25 0;
#X coords 0 -1 1 1 200 60 1 100 100;
