#N canvas 243 208 1162 592 10;
#X obj 2 100 inlet~;
#X obj 147 357 +~;
#X obj 160 309 *~ 0.7;
#X obj 160 337 hip~ 55;
#X obj 161 217 expr (60 / ($f1 * 4)) * 1000;
#X obj 161 191 / 1;
#X obj 183 191 t b f;
#X obj 0 440 outlet~;
#X obj 0 310 sig-switch;
#X obj 80 310 sig-switch;
#X obj 77 121 select 1;
#X msg 107 146 0;
#X msg 77 146 1;
#X obj 12 30 hradio 15 0 0 17 \$0_delay_measures \$0_midi_delay_measures
measures 0 -6 0 8 #d8fcd8 #000000 #000000 2;
#X obj 185 57 hsl 80 16 0 1 0 0 \$0_delay_feedback \$0_midi_delay_feedback
feedback -2 -6 0 8 #7c7c7c #d8fcfc #000000 5925 1;
#X obj 36 57 nbx 4 16 0 1e+37 0 0 \$0_delay_bpm \$0_midi_delay_bpm
bpm 0 -6 0 10 #fcfcfc #000000 #000000 160 256 0;
#X obj 11 56 tgl 21 0 \$0_delay_on \$0_midi_delay_on on 0 -6 0 7 #fc2828
#000000 #000000 0 1;
#X obj 161 138 r \$0_delay_bpm;
#X obj 260 110 r \$0_delay_measures;
#X obj 160 283 delread~ \$0_delay 160;
#X obj 205 309 r \$0_delay_feedback;
#X obj 147 427 delwrite~ \$0_delay 2000;
#X obj 78 100 r \$0_delay_on;
#X obj 430 20 inlet;
#X obj 260 170 / 4;
#X obj 96 57 hsl 80 16 0 17 0 0 empty empty div -2 -6 0 8 #7c7c7c #d8fcfc
#000000 0 1;
#X obj 200 110 int;
#X obj 180 240 pack f 10;
#X obj 180 260 line;
#X obj 540 40 loadbang;
#X obj 540 80 2;
#X obj 570 80 160;
#X obj 620 80 0.75;
#X obj 150 390 *~;
#X obj 460 160 delay 5;
#X obj 320 140 t f b b;
#X obj 460 190 1;
#X obj 430 190 0;
#X obj 410 330 line~;
#X obj 429 256 pack f 2;
#X connect 0 0 8 2;
#X connect 0 0 9 0;
#X connect 1 0 33 0;
#X connect 2 0 3 0;
#X connect 3 0 1 1;
#X connect 4 0 27 0;
#X connect 5 0 4 0;
#X connect 6 0 5 0;
#X connect 6 1 5 1;
#X connect 8 0 7 0;
#X connect 9 0 1 0;
#X connect 10 0 12 0;
#X connect 10 1 11 0;
#X connect 11 0 8 1;
#X connect 11 0 9 1;
#X connect 12 0 8 1;
#X connect 12 0 9 1;
#X connect 17 0 5 0;
#X connect 18 0 35 0;
#X connect 19 0 2 0;
#X connect 20 0 2 1;
#X connect 22 0 10 0;
#X connect 23 0 15 0;
#X connect 24 0 6 0;
#X connect 25 0 26 0;
#X connect 26 0 13 0;
#X connect 27 0 28 0;
#X connect 28 0 19 0;
#X connect 29 0 30 0;
#X connect 29 0 31 0;
#X connect 29 0 32 0;
#X connect 30 0 13 0;
#X connect 31 0 15 0;
#X connect 32 0 14 0;
#X connect 33 0 21 0;
#X connect 33 0 7 0;
#X connect 34 0 36 0;
#X connect 35 0 24 0;
#X connect 35 1 37 0;
#X connect 35 2 34 0;
#X connect 36 0 39 0;
#X connect 37 0 39 0;
#X connect 38 0 33 1;
#X connect 39 0 38 0;
#X coords 0 -1 1 1 263 65 1 9 15;
