#N canvas 2 18 1596 835 10;
#X text 99 200 note-in;
#X obj 98 249 moses 1;
#X msg 171 225 1;
#X obj 244 416 line~;
#X obj 271 372 f;
#X obj 153 449 *~;
#X obj 153 502 outlet~;
#X text 149 519 audio out;
#N canvas 2 18 1596 860 voices 0;
#X obj 50 6 inlet;
#X obj 180 34 inlet~;
#X text 164 19 modulation;
#X obj 113 167 outlet~;
#N canvas 2 18 1596 835 analog_voices 0;
#N canvas 2 18 1596 860 square 0;
#X obj 173 209 inlet~;
#X text 177 192 mod in;
#X obj 100 241 +~;
#X obj 62 126 mtof;
#X text 163 153 note decay;
#X obj 135 169 f;
#X obj 63 159 f;
#X obj 62 21 inlet;
#X msg 134 190 0 \$1;
#X msg 349 74 1;
#X msg 377 74 0;
#X obj 347 52 select 1;
#X obj 361 120 switch~;
#X obj 170 75 t b b;
#X msg 64 182 \$1 3;
#X obj 135 136 delay 3;
#X obj 62 100 +;
#X obj 61 280 phasor~;
#X obj 147 280 phasor~;
#X msg 203 279 0.5;
#X msg 115 280 0;
#X obj 96 308 -~;
#X obj 261 211 bng 15 250 50 0 empty empty empty 0 -6 0 8 #fcfcfc #000000
#000000;
#X obj 100 217 line~;
#X obj 96 331 *~ 1;
#X obj 78 69 r \$0_pitch;
#X obj 348 29 r \$0_voice_type;
#X obj 95 358 throw~ \$0_out;
#X obj 162 169 r \$0_len;
#X obj 420 100 print square_on;
#X connect 0 0 2 1;
#X connect 2 0 17 0;
#X connect 2 0 18 0;
#X connect 3 0 6 1;
#X connect 5 0 8 0;
#X connect 6 0 14 0;
#X connect 7 0 13 0;
#X connect 7 0 16 0;
#X connect 8 0 23 0;
#X connect 9 0 12 0;
#X connect 9 0 29 0;
#X connect 10 0 12 0;
#X connect 10 0 29 0;
#X connect 11 0 9 0;
#X connect 11 1 10 0;
#X connect 13 0 15 0;
#X connect 13 1 6 0;
#X connect 13 1 22 0;
#X connect 14 0 23 0;
#X connect 15 0 5 0;
#X connect 16 0 3 0;
#X connect 17 0 21 0;
#X connect 18 0 21 1;
#X connect 19 0 18 1;
#X connect 20 0 17 1;
#X connect 21 0 24 0;
#X connect 22 0 20 0;
#X connect 22 0 19 0;
#X connect 23 0 2 0;
#X connect 24 0 27 0;
#X connect 25 0 16 1;
#X connect 26 0 11 0;
#X connect 28 0 5 1;
#X restore 133 99 pd square;
#N canvas 2 18 1596 860 triangle 0;
#X obj 159 215 line~;
#X obj 98 203 inlet~;
#X text 96 184 mod in;
#X obj 147 248 +~;
#X obj 127 120 mtof;
#X text 244 124 note decay;
#X obj 200 163 f;
#X obj 144 157 f;
#X obj 171 -4 inlet;
#X msg 199 184 0 \$1;
#X msg 360 178 1;
#X msg 394 178 0;
#X obj 359 156 select 2;
#X obj 378 215 switch~;
#X obj 232 64 t b b;
#X msg 145 180 \$1 3;
#X obj 234 104 delay 3;
#X obj 127 94 +;
#X obj 170 364 -~;
#X obj 147 276 phasor~ 0;
#X text 205 349 triangle;
#X obj 183 326 *~ 2;
#X obj 183 302 clip~ 0 0.5;
#X obj 169 459 clip~ -0.95 0.95;
#X obj 170 434 *~ 1.25;
#X obj 170 407 -~ 0.8;
#X obj 170 386 *~ 3.5;
#X obj 154 66 r \$0_pitch;
#X obj 240 140 r \$0_len;
#X obj 359 133 r \$0_voice_type;
#X obj 222 275 r \$0_retrig;
#X obj 168 483 throw~ \$0_out;
#X obj 430 220 print triangle_on;
#X connect 0 0 3 0;
#X connect 1 0 3 1;
#X connect 3 0 19 0;
#X connect 4 0 7 1;
#X connect 6 0 9 0;
#X connect 7 0 15 0;
#X connect 8 0 14 0;
#X connect 8 0 17 0;
#X connect 9 0 0 0;
#X connect 10 0 13 0;
#X connect 10 0 32 0;
#X connect 11 0 13 0;
#X connect 11 0 32 0;
#X connect 12 0 10 0;
#X connect 12 1 11 0;
#X connect 14 0 16 0;
#X connect 14 1 7 0;
#X connect 15 0 0 0;
#X connect 16 0 6 0;
#X connect 17 0 4 0;
#X connect 18 0 26 0;
#X connect 19 0 18 1;
#X connect 19 0 22 0;
#X connect 21 0 18 0;
#X connect 22 0 21 0;
#X connect 23 0 31 0;
#X connect 24 0 23 0;
#X connect 25 0 24 0;
#X connect 26 0 25 0;
#X connect 27 0 17 1;
#X connect 28 0 6 1;
#X connect 29 0 12 0;
#X connect 30 0 19 1;
#X restore 236 100 pd triangle;
#X obj 361 44 select 0;
#X obj 363 68 t b b;
#X obj 405 68 t b b;
#X obj 363 90 f 1;
#X obj 405 90 f 0;
#N canvas 2 18 1596 860 sine 0;
#X obj 66 137 mtof;
#X obj 84 241 line~;
#X text 183 141 note decay;
#X obj 157 182 f;
#X obj 83 174 f;
#X obj 40 242 inlet~;
#X text 38 223 mod in;
#X obj 71 298 +~;
#X obj 110 13 inlet;
#X obj 71 330 osc~;
#X msg 156 203 0 \$1;
#X msg 262 70 1;
#X msg 291 70 0;
#X obj 262 48 select 0;
#X obj 277 103 switch~;
#X obj 182 102 t b b;
#X msg 84 197 \$1 3;
#X obj 150 158 delay 3;
#X obj 66 111 +;
#X obj 93 83 r \$0_pitch;
#X obj 263 25 r \$0_voice_type;
#X obj 200 159 r \$0_len;
#X obj 108 329 r \$0_retrig;
#X obj 70 364 throw~ \$0_out;
#X obj 350 100 print sine_on;
#X connect 0 0 4 1;
#X connect 1 0 7 0;
#X connect 3 0 10 0;
#X connect 4 0 16 0;
#X connect 5 0 7 1;
#X connect 7 0 9 0;
#X connect 8 0 15 0;
#X connect 8 0 18 0;
#X connect 9 0 23 0;
#X connect 10 0 1 0;
#X connect 11 0 14 0;
#X connect 11 0 24 0;
#X connect 12 0 14 0;
#X connect 12 0 24 0;
#X connect 13 0 11 0;
#X connect 13 1 12 0;
#X connect 15 0 17 0;
#X connect 15 1 4 0;
#X connect 16 0 1 0;
#X connect 17 0 3 0;
#X connect 18 0 0 0;
#X connect 19 0 18 1;
#X connect 20 0 13 0;
#X connect 21 0 3 1;
#X connect 22 0 9 1;
#X restore 25 97 pd sine \$1;
#X obj 79 34 inlet;
#X obj 235 36 inlet~;
#X obj 379 122 switch~;
#X obj 361 19 r \$0_voice_source_type;
#X obj 460 70 print analog_on;
#X connect 2 0 3 0;
#X connect 2 1 4 0;
#X connect 3 0 5 0;
#X connect 4 0 6 0;
#X connect 5 0 10 0;
#X connect 6 0 10 0;
#X connect 8 0 7 1;
#X connect 8 0 0 0;
#X connect 8 0 1 1;
#X connect 9 0 7 0;
#X connect 9 0 0 1;
#X connect 9 0 1 0;
#X connect 11 0 2 0;
#X restore 60 68 pd analog_voices;
#N canvas 2 18 1596 860 wavetable_voices 0;
#N canvas 2 18 1596 860 square 0;
#X obj 80 215 line~;
#X obj 23 216 inlet~;
#X text 21 197 mod in;
#X obj 68 248 +~;
#X obj 42 124 mtof;
#X text 159 128 note decay;
#X obj 115 167 f;
#X obj 59 161 f;
#X obj 86 0 inlet;
#X msg 114 188 0 \$1;
#X msg 260 131 1;
#X msg 288 131 0;
#X obj 258 109 select 1;
#X obj 272 177 switch~;
#X obj 71 287 tabosc4~ square;
#X obj 71 310 -~ 0.1;
#X obj 138 70 t b b;
#X obj 149 108 delay 3;
#X msg 60 184 \$1 3;
#X obj 42 98 +;
#X obj 69 70 r \$0_pitch;
#X obj 259 86 r \$0_voice_type;
#X obj 158 144 r \$0_len;
#X obj 160 270 r \$0_retrig;
#X obj 70 344 throw~ \$0_out;
#X obj 330 180 print wsquare_on;
#X connect 0 0 3 0;
#X connect 1 0 3 1;
#X connect 3 0 14 0;
#X connect 4 0 7 1;
#X connect 6 0 9 0;
#X connect 7 0 18 0;
#X connect 8 0 16 0;
#X connect 8 0 19 0;
#X connect 9 0 0 0;
#X connect 10 0 13 0;
#X connect 10 0 25 0;
#X connect 11 0 13 0;
#X connect 11 0 25 0;
#X connect 12 0 10 0;
#X connect 12 1 11 0;
#X connect 14 0 15 0;
#X connect 15 0 24 0;
#X connect 16 0 17 0;
#X connect 16 1 7 0;
#X connect 17 0 6 0;
#X connect 18 0 0 0;
#X connect 19 0 4 0;
#X connect 20 0 19 1;
#X connect 21 0 12 0;
#X connect 22 0 6 1;
#X connect 23 0 14 1;
#X restore 133 99 pd square;
#N canvas 2 18 1596 860 triangle 0;
#X obj 73 197 line~;
#X obj 12 185 inlet~;
#X text 10 166 mod in;
#X obj 61 230 +~;
#X obj 41 102 mtof;
#X text 158 106 note decay;
#X obj 114 145 f;
#X obj 58 139 f;
#X obj 157 122 r \$1_len;
#X obj 85 -22 inlet;
#X msg 113 166 0 \$1;
#X msg 274 160 1;
#X msg 308 160 0;
#X obj 273 138 select 2;
#X obj 292 197 switch~;
#X obj 63 269 tabosc4~ triangle;
#X obj 62 291 +~ 0.1;
#X obj 138 47 t b b;
#X obj 148 86 delay 3;
#X msg 59 162 \$1 3;
#X obj 41 76 +;
#X obj 68 48 r \$0_pitch;
#X obj 158 247 r \$0_retrig;
#X obj 62 323 throw~ \$0_out;
#X obj 273 115 r \$0_voice_type;
#X obj 350 200 print wtri_on;
#X connect 0 0 3 0;
#X connect 1 0 3 1;
#X connect 3 0 15 0;
#X connect 4 0 7 1;
#X connect 6 0 10 0;
#X connect 7 0 19 0;
#X connect 8 0 6 1;
#X connect 9 0 17 0;
#X connect 9 0 20 0;
#X connect 10 0 0 0;
#X connect 11 0 14 0;
#X connect 11 0 25 0;
#X connect 12 0 14 0;
#X connect 12 0 25 0;
#X connect 13 0 11 0;
#X connect 13 1 12 0;
#X connect 15 0 16 0;
#X connect 16 0 23 0;
#X connect 17 0 18 0;
#X connect 17 1 7 0;
#X connect 18 0 6 0;
#X connect 19 0 0 0;
#X connect 20 0 4 0;
#X connect 21 0 20 1;
#X connect 22 0 15 1;
#X connect 24 0 13 0;
#X restore 236 100 pd triangle;
#X obj 363 68 t b b;
#X obj 405 68 t b b;
#X obj 363 90 f 1;
#X obj 405 90 f 0;
#X obj 79 34 inlet;
#X obj 235 36 inlet~;
#X obj 379 122 switch~;
#N canvas 2 18 1596 860 sine 0;
#X obj 66 137 mtof;
#X obj 84 241 line~;
#X text 183 141 note decay;
#X obj 139 180 f;
#X obj 83 174 f;
#X obj 40 242 inlet~;
#X text 38 223 mod in;
#X obj 71 298 +~;
#X obj 110 13 inlet;
#X msg 138 201 0 \$1;
#X msg 262 70 1;
#X msg 291 70 0;
#X obj 262 48 select 0;
#X obj 277 103 switch~;
#X obj 71 320 tabosc4~ sine;
#X obj 71 342 -~ 0.05;
#X obj 172 101 t b b;
#X obj 132 156 delay 3;
#X msg 84 197 \$1 3;
#X obj 66 111 +;
#X obj 93 83 r \$0_pitch;
#X obj 263 25 r \$0_voice_type;
#X obj 182 157 r \$0_len;
#X obj 140 290 r \$0_retrig;
#X obj 70 364 throw~ \$0_out;
#X obj 330 100 print wsine_on;
#X connect 0 0 4 1;
#X connect 1 0 7 0;
#X connect 3 0 9 0;
#X connect 4 0 18 0;
#X connect 5 0 7 1;
#X connect 7 0 14 0;
#X connect 8 0 16 0;
#X connect 8 0 19 0;
#X connect 9 0 1 0;
#X connect 10 0 13 0;
#X connect 10 0 25 0;
#X connect 11 0 13 0;
#X connect 11 0 25 0;
#X connect 12 0 10 0;
#X connect 12 1 11 0;
#X connect 14 0 15 0;
#X connect 15 0 24 0;
#X connect 16 0 17 0;
#X connect 16 1 4 0;
#X connect 17 0 3 0;
#X connect 18 0 1 0;
#X connect 19 0 0 0;
#X connect 20 0 19 1;
#X connect 21 0 12 0;
#X connect 22 0 3 1;
#X connect 23 0 14 1;
#X restore 25 97 pd sine;
#X obj 361 44 select 1;
#X obj 361 19 r \$0_voice_source_type;
#X obj 440 120 print wvoice_on;
#X connect 2 0 4 0;
#X connect 3 0 5 0;
#X connect 4 0 8 0;
#X connect 4 0 12 0;
#X connect 5 0 8 0;
#X connect 5 0 12 0;
#X connect 6 0 9 1;
#X connect 6 0 0 1;
#X connect 6 0 1 1;
#X connect 7 0 9 0;
#X connect 7 0 0 0;
#X connect 7 0 1 0;
#X connect 10 0 2 0;
#X connect 10 1 3 0;
#X connect 11 0 10 0;
#X restore 46 97 pd wavetable_voices;
#N canvas 2 18 1596 860 noise_voice 0;
#X obj 91 277 vcf~;
#X obj 91 301 hip~ 5;
#X obj 55 247 noise~;
#X obj 145 252 moses 1;
#X msg 117 252 1;
#X obj 113 197 line~;
#X obj 52 185 inlet~;
#X text 50 166 mod in;
#X obj 101 230 +~;
#X obj 81 102 mtof;
#X text 198 106 note decay;
#X obj 154 145 f;
#X obj 98 139 f;
#X obj 120 8 inlet;
#X msg 153 166 0 \$1;
#X msg 294 66 1;
#X msg 328 66 0;
#X obj 312 103 switch~;
#X obj 293 44 select 3;
#X obj 173 53 t b b;
#X obj 188 86 delay 3;
#X msg 99 162 \$1 3;
#X obj 81 76 +;
#X obj 104 52 r \$0_pitch;
#X obj 293 21 r \$0_voice_type;
#X obj 197 122 r \$0_len;
#X obj 145 228 r \$0_vq;
#X obj 91 328 throw~ \$0_out;
#X obj 370 110 print noise_on;
#X connect 0 0 1 0;
#X connect 1 0 27 0;
#X connect 2 0 0 0;
#X connect 3 0 4 0;
#X connect 3 1 0 2;
#X connect 4 0 0 2;
#X connect 5 0 8 0;
#X connect 6 0 8 1;
#X connect 8 0 0 1;
#X connect 9 0 12 1;
#X connect 11 0 14 0;
#X connect 12 0 21 0;
#X connect 13 0 19 0;
#X connect 13 0 22 0;
#X connect 14 0 5 0;
#X connect 15 0 17 0;
#X connect 15 0 28 0;
#X connect 16 0 17 0;
#X connect 16 0 28 0;
#X connect 18 0 15 0;
#X connect 18 1 16 0;
#X connect 19 0 20 0;
#X connect 19 1 12 0;
#X connect 20 0 11 0;
#X connect 21 0 5 0;
#X connect 22 0 9 0;
#X connect 23 0 22 1;
#X connect 24 0 18 0;
#X connect 25 0 11 1;
#X connect 26 0 3 0;
#X restore 200 98 pd noise_voice;
#X obj 112 141 catch~ \$0_out;
#X connect 0 0 4 0;
#X connect 0 0 5 0;
#X connect 0 0 6 1;
#X connect 1 0 4 1;
#X connect 1 0 5 1;
#X connect 1 0 6 0;
#X connect 7 0 3 0;
#X restore 56 394 pd voices ----;
#X obj 55 368 inlet~;
#X msg 271 394 0 \$1;
#X text 150 250 ( < 1 = note mute);
#X msg 153 345 0.5;
#X msg 236 393 1 3;
#X obj 250 349 delay 3;
#X obj 167 281 t b f b b;
#X obj 98 217 inlet;
#X obj 97 130 hradio 15 0 0 4 \$0_voice_type \$0_midi_voice_type si_sq_tr_no
3 -5 0 7 #d8fcd8 #000000 #000000 2;
#X obj 96 158 hradio 15 0 0 4 \$0_mod_type \$0_midi_mod_type si_sq_tr_no
3 -5 0 7 #b4f8f8 #000000 #000000 1;
#X obj 165 160 hradio 12 0 0 2 \$0_mod_source_type \$0_midi_mod_source_type
a/w 1 -6 0 8 #fcfcfc #000000 #000000 0;
#X obj 165 131 hradio 12 0 0 2 \$0_voice_source_type midi_voice_source_type
a/w 1 -6 0 8 #fcfcfc #000000 #000000 1;
#X obj 251 159 nbx 5 14 -1e+37 1e+37 0 0 \$0_mod_freq \$0_midi_mod_freq
freq 0 -6 0 8 #fcfcfc #000000 #000000 0 256 0;
#X obj 196 159 nbx 5 14 -1e+37 1e+37 0 0 \$0_mod_depth \$0_midi_mod_depth
depth 0 -6 0 8 #fcfcfc #000000 #000000 0 256 0;
#X obj 251 129 nbx 5 14 3 1e+37 0 0 \$0_len \$0_midi_len length 0 -6
0 8 #fcfcfc #000000 #000000 304 256 0;
#X obj 196 129 nbx 5 14 -1e+37 1e+37 0 0 \$0_pitch \$0_midi_pitch pitch
0 -6 0 8 #fcfcfc #000000 #000000 11.5052 256 0;
#X obj 80 159 tgl 12 0 \$0_mod_on \$0_midi_mod_on on 0 -6 0 7 #fc2828
#000000 #000000 0 1;
#X obj 306 130 nbx 5 14 -1e+37 1e+37 0 0 \$0_vq \$0_midi_vq noise_Q
0 -6 0 8 #fcfcfc #000000 #000000 2 256 0;
#X obj 307 159 nbx 5 14 -1e+37 1e+37 0 0 \$0_mq \$0_midi_mq noise_Q
0 -6 0 8 #fcfcfc #000000 #000000 0 256 0;
#X obj 171 202 r \$0_trigger;
#X obj 310 350 r \$0_len;
#X obj 153 369 s \$0_retrig;
#X obj 410 125 loadbang;
#X obj 467 125 table square 67;
#X msg 410 149 \; square sinesum 64 1.125 0 0.25 0 0.1 0 0.075;
#X obj 410 189 loadbang;
#X obj 410 251 loadbang;
#X obj 470 189 table triangle 67;
#X obj 464 252 table sine 67;
#X msg 410 273 \; sine sinesum 64 0.99;
#X msg 410 210 \; triangle sinesum 64 0.6 0.25 0.19 0.15 0.14 0.125
0.1;
#X obj 30 250 s \$0_note;
#X obj 50 120 bng 29 100 50 0 empty empty empty 17 7 0 10 #403b3b #b62525
#000000;
#X connect 1 1 15 0;
#X connect 2 0 1 0;
#X connect 3 0 5 1;
#X connect 4 0 10 0;
#X connect 5 0 6 0;
#X connect 8 0 5 0;
#X connect 9 0 8 1;
#X connect 10 0 3 0;
#X connect 12 0 30 0;
#X connect 13 0 3 0;
#X connect 14 0 4 0;
#X connect 15 0 14 0;
#X connect 15 1 8 0;
#X connect 15 2 12 0;
#X connect 15 3 13 0;
#X connect 16 0 1 0;
#X connect 16 0 40 0;
#X connect 16 0 41 0;
#X connect 16 0 24 0;
#X connect 28 0 2 0;
#X connect 29 0 4 1;
#X connect 31 0 33 0;
#X connect 34 0 39 0;
#X connect 35 0 38 0;
#X connect 41 0 2 0;
#X coords 0 -1 1 1 320 75 1 43 100;
