#N canvas 326 353 887 494 12;
#X obj 10 10 cnv 15 300 88 empty empty empty 20 12 0 14 #e0e0e0 #404040
0;
#X obj 13 13 vsl 30 78 0 0.45 0 0 empty empty empty 0 -9 0 10 #fcfcfc
#000000 #000000 0 1;
#X obj 46 13 ctimeenv;
#X obj 190 261 noiseEnv;
#X obj 190 210 *~;
#X obj 210 170 mtof;
#X obj 190 287 *~;
#X obj 370 20 inlet~;
#X obj 430 20 inlet;
#X obj 480 20 inlet;
#X obj 190 236 *~ 100;
#X obj 190 315 outlet~;
#X connect 1 0 6 1;
#X connect 2 0 4 0;
#X connect 3 0 6 0;
#X connect 4 0 10 0;
#X connect 5 0 4 1;
#X connect 6 0 11 0;
#X connect 7 0 11 0;
#X connect 8 0 2 1;
#X connect 9 0 5 0;
#X connect 10 0 3 0;
#X coords 0 -1 1 1 306 94 1 6 7;
