#N canvas 575 338 450 300 12;
#X obj 130 210 sig~;
#X obj 130 120 t b b;
#X obj 160 150 delay 10;
#X msg 160 180 0;
#X msg 130 150 1;
#X obj 130 90 bng 15 250 50 0 empty empty empty 17 7 0 10 #fcfcfc #000000
#000000;
#X connect 1 0 4 0;
#X connect 1 1 2 0;
#X connect 2 0 3 0;
#X connect 3 0 0 0;
#X connect 4 0 0 0;
#X connect 5 0 1 0;
