#N canvas 2 437 1596 419 12;
#X obj 720 30 noise~;
#X obj 250 260 dac~;
#X obj 290 110 ctimeenv;
#X obj 460 20 bng 58 250 50 0 empty empty empty 17 7 0 10 #fcfcfc #000000
#000000;
#X obj 210 30 osc~;
#X msg 170 110 440;
#X obj 680 110 ctimeenv;
#X obj 120 110 osc~;
#X obj 120 70 3;
#X obj 140 170 *~;
#X obj 30 120 vsl 15 128 0 127 0 0 empty empty empty 0 -9 0 10 #fcfcfc
#000000 #000000 12700 1;
#X obj 70 250 / 127;
#X obj 180 170 sig~;
#X obj 110 20 nbx 5 14 -1e+37 1e+37 0 0 empty empty empty 0 -8 0 10
#fcfcfc #000000 #000000 254 256 0;
#X obj 160 220 *~;
#X obj 600 280 reverbgui~;
#X connect 0 0 6 0;
#X connect 2 0 15 0;
#X connect 2 0 15 1;
#X connect 3 0 2 1;
#X connect 3 0 6 1;
#X connect 4 0 2 0;
#X connect 5 0 12 0;
#X connect 6 0 15 0;
#X connect 6 0 15 1;
#X connect 7 0 9 0;
#X connect 8 0 7 0;
#X connect 9 0 14 1;
#X connect 10 0 11 0;
#X connect 11 0 9 1;
#X connect 12 0 14 0;
#X connect 13 0 8 0;
#X connect 14 0 4 0;
#X connect 15 0 1 0;
#X connect 15 1 1 1;
