#N canvas 610 150 701 406 10;
#N canvas 111 26 750 643 sample 0;
#X obj 19 97 unpack s f;
#X obj 19 291 soundfiler;
#X obj 74 69 44100;
#X obj 19 70 t a b;
#X obj 18 528 /;
#X obj 18 552 * 1000;
#X obj 334 53 hip~ 5;
#X obj 326 -8 inlet;
#X obj 419 2 samplerate~;
#X obj 19 -11 inlet;
#X obj 19 11 openpanel;
#X obj 107 12 r \$1-sample;
#X msg 19 266 read -resize \$1 \$2 \$3;
#X obj 19 242 pack s s s;
#X obj 34 38 s \$1-read-sample;
#X obj 88 96 s \$1-insamprate;
#X obj 72 508 s \$1-samplength;
#X obj 56 528 r \$1-insamprate;
#X obj 18 581 s \$1-samp-msec;
#X obj 419 26 s \$1-insamprate;
#X obj 359 24 adc~ 1 2;
#X obj 444 58 hip~ 5;
#N canvas 0 22 450 300 (subpatch) 0;
#X array \$1-sample-2-1 3.52858e+06 float 0;
#X coords 0 1 3.52858e+06 -1 400 31 1;
#X restore 328 415 graph;
#N canvas 0 22 450 300 (subpatch) 0;
#X array \$1-sample-2-2 3.52858e+06 float 0;
#X coords 0 1 3.52858e+06 -1 400 31 1;
#X restore 328 462 graph;
#N canvas 0 22 450 300 (subpatch) 0;
#X array \$1-sample-1-1 282240 float 0;
#X coords 0 1 282239 -1 400 31 1;
#X restore 328 294 graph;
#N canvas 0 22 450 300 (subpatch) 0;
#X array \$1-sample-1-2 282240 float 0;
#X coords 0 1 282239 -1 400 31 1;
#X restore 328 342 graph;
#X msg 459 156 set \$1;
#X obj 287 128 makefilename \$1-sample-%d-1;
#X msg 326 156 set \$1;
#X obj 217 -7 r \$1-samp-num;
#X obj 217 20 + 1;
#X obj 95 125 makefilename \$1-sample-%d-1;
#X obj 95 150 makefilename \$1-sample-%d-2;
#X obj 457 128 makefilename \$1-sample-%d-2;
#X obj 19 350 f;
#X obj 18 370 pack f f;
#X obj 80 452 f;
#X obj 110 452 f;
#X obj 19 319 t b f;
#X obj 18 392 route 1 2;
#X obj 167 262 route 1 2;
#X obj 77 183 symbol;
#X obj 47 207 symbol;
#X obj 309 181 tabwrite~;
#X obj 444 180 tabwrite~;
#N canvas 288 234 681 428 samp-vis 0;
#X obj 108 74 inlet;
#X msg 347 173 set \$1;
#X obj 177 148 makefilename \$1-sample-%d-1;
#X msg 177 172 set \$1;
#X obj 347 148 makefilename \$1-sample-%d-2;
#X obj 231 267 tabread;
#X obj 307 266 tabread;
#X obj 238 172 r \$1-samplength;
#X obj 238 196 / 2000;
#X obj 222 221 *;
#X obj 124 233 t f f f;
#X obj 153 54 tgl 15 0 empty empty empty 17 7 0 10 #fcfcfc #000000
#000000 0 1;
#X obj 152 75 + 1;
#X obj -12 361 tabwrite \$1-sample-vis-1;
#X obj 139 361 tabwrite \$1-sample-vis-2;
#X obj 108 108 t b b f f;
#X obj 255 298 * 2;
#X obj 225 298 * 2;
#X obj 116 201 f;
#X obj 101 168 until;
#X msg 100 147 2000;
#X msg 141 150 0;
#X obj 147 204 + 1;
#X connect 0 0 15 0;
#X connect 1 0 6 0;
#X connect 2 0 3 0;
#X connect 3 0 5 0;
#X connect 4 0 1 0;
#X connect 5 0 17 0;
#X connect 6 0 16 0;
#X connect 7 0 8 0;
#X connect 8 0 9 1;
#X connect 9 0 5 0;
#X connect 9 0 6 0;
#X connect 10 0 13 1;
#X connect 10 1 14 1;
#X connect 10 2 9 0;
#X connect 11 0 12 0;
#X connect 12 0 15 0;
#X connect 15 0 20 0;
#X connect 15 1 21 0;
#X connect 15 2 2 0;
#X connect 15 3 4 0;
#X connect 16 0 14 0;
#X connect 17 0 13 0;
#X connect 18 0 10 0;
#X connect 18 0 22 0;
#X connect 19 0 18 0;
#X connect 20 0 19 0;
#X connect 21 0 18 0;
#X connect 21 0 18 1;
#X connect 22 0 18 1;
#X restore 242 234 pd samp-vis;
#X obj 153 332 print;
#X obj 207 205 f;
#X obj 19 123 t b s b b;
#X connect 0 0 48 0;
#X connect 0 1 15 0;
#X connect 1 0 38 0;
#X connect 2 0 15 0;
#X connect 3 0 0 0;
#X connect 3 1 2 0;
#X connect 4 0 5 0;
#X connect 5 0 18 0;
#X connect 6 0 43 0;
#X connect 7 0 8 0;
#X connect 7 0 43 0;
#X connect 7 0 44 0;
#X connect 8 0 19 0;
#X connect 9 0 10 0;
#X connect 10 0 14 0;
#X connect 10 0 3 0;
#X connect 11 0 14 0;
#X connect 12 0 1 0;
#X connect 12 0 46 0;
#X connect 13 0 12 0;
#X connect 17 0 4 1;
#X connect 20 0 6 0;
#X connect 20 1 21 0;
#X connect 21 0 44 0;
#X connect 26 0 44 0;
#X connect 27 0 28 0;
#X connect 28 0 43 0;
#X connect 29 0 30 0;
#X connect 30 0 27 0;
#X connect 30 0 33 0;
#X connect 30 0 31 0;
#X connect 30 0 32 0;
#X connect 30 0 34 1;
#X connect 30 0 40 0;
#X connect 30 0 45 0;
#X connect 30 0 47 1;
#X connect 31 0 41 1;
#X connect 32 0 42 1;
#X connect 33 0 26 0;
#X connect 34 0 35 0;
#X connect 35 0 39 0;
#X connect 36 0 16 0;
#X connect 36 0 4 0;
#X connect 37 0 16 0;
#X connect 37 0 4 0;
#X connect 38 0 34 0;
#X connect 38 1 35 1;
#X connect 39 0 16 0;
#X connect 39 0 36 1;
#X connect 39 0 4 0;
#X connect 39 1 37 1;
#X connect 39 1 16 0;
#X connect 39 1 4 0;
#X connect 40 0 36 0;
#X connect 40 1 37 0;
#X connect 41 0 13 2;
#X connect 42 0 13 1;
#X connect 47 0 45 0;
#X connect 48 0 47 0;
#X connect 48 1 13 0;
#X connect 48 2 42 0;
#X connect 48 3 41 0;
#X restore 61 173 pd sample;
#N canvas 0 110 565 454 hann-window 0;
#N canvas 0 22 450 300 (subpatch) 0;
#X array \$1-hann 512 float 0;
#X coords 0 1 511 0 300 100 1;
#X restore 82 311 graph;
#X obj 392 165 osc~;
#X obj 392 190 *~ -0.5;
#X obj 392 214 +~ 0.5;
#X obj 38 173 /;
#X obj 127 142 samplerate~;
#X obj 201 204 swap;
#X obj 201 228 /;
#X obj 49 201 * 1000;
#X obj 38 115 t f b f;
#X msg 201 89 resize \$1;
#X msg 396 130 0;
#X obj 344 131 t f b;
#X text 15 8 calculate Hann window table (variable window size) and
constants window-hz (fundamental frequency of analysis) \, window-sec
and window-msec (analysis window size in seconds and msec).;
#X obj 37 87 r \$1-window-size;
#X obj 37 252 s \$1-window-sec;
#X obj 49 229 s \$1-window-msec;
#X obj 201 252 s \$1-window-hz;
#X obj 344 105 r \$1-window-hz;
#X obj 201 113 s \$1-hann;
#X obj 344 247 tabwrite~ \$1-hann;
#X connect 1 0 2 0;
#X connect 2 0 3 0;
#X connect 3 0 20 0;
#X connect 4 0 8 0;
#X connect 4 0 15 0;
#X connect 5 0 4 1;
#X connect 5 0 6 1;
#X connect 6 0 7 0;
#X connect 6 1 7 1;
#X connect 7 0 17 0;
#X connect 8 0 16 0;
#X connect 9 0 4 0;
#X connect 9 0 6 0;
#X connect 9 1 5 0;
#X connect 9 2 10 0;
#X connect 10 0 19 0;
#X connect 11 0 1 1;
#X connect 12 0 1 0;
#X connect 12 1 11 0;
#X connect 12 1 20 0;
#X connect 14 0 9 0;
#X connect 18 0 12 0;
#X restore 127 173 pd hann-window;
#N canvas 256 24 457 646 phase-tables-2 0;
#N canvas 0 22 450 300 (subpatch) 0;
#X array \$1-prev-imag-2 4096 float 0;
#X coords 0 1000 4096 -1000 400 300 1;
#X restore -28 341 graph;
#N canvas 0 22 450 300 (subpatch) 0;
#X array \$1-prev-real-2 4096 float 0;
#X coords 0 500 4096 -500 400 300 1;
#X restore -27 20 graph;
#X restore 205 201 pd phase-tables-2;
#X obj 386 173 loadbang;
#X msg 419 201 0.5;
#X obj 418 222 s \$1-pan-set;
#N canvas 256 24 457 646 phase-tables-1 0;
#N canvas 0 22 450 300 (subpatch) 0;
#X array \$1-prev-imag-1 4096 float 0;
#X coords 0 1000 4096 -1000 400 300 1;
#X restore -4 341 graph;
#N canvas 0 22 450 300 (subpatch) 0;
#X array \$1-prev-real-1 4096 float 0;
#X coords 0 500 4096 -500 400 300 1;
#X restore -3 20 graph;
#X restore 65 202 pd phase-tables-1;
#X obj 385 325 s \$1-auto;
#X obj 385 277 r \$1-play;
#X obj 385 303 100;
#X msg 520 295 set \$1;
#X obj 520 321 s \$1-location-set;
#X obj 540 224 f;
#X obj 556 201 r \$1-samp-msec;
#X obj 501 173 r \$1-loc-ind;
#X obj 520 270 *;
#X obj 568 294 s \$1-location;
#X msg 501 345 set \$1;
#X obj 501 195 t f f b;
#X obj 501 371 s \$1-loc-ind-set;
#X obj 539 246 / 25000;
#X msg 386 224 0;
#X obj 385 245 s \$1-samp-num-in;
#N canvas 254 257 567 371 looptest 0;
#X obj 90 0 metro;
#X obj 153 -64 nbx 5 14 -1e+37 1e+37 0 0 empty empty empty 0 -8 0 10
#fcfcfc #000000 #000000 0 256;
#X obj 130 -64 tgl 15 0 empty empty empty 17 7 0 10 #fcfcfc #000000
#000000 0 1;
#X obj 224 265 s 1-speed;
#X obj 32 139 s 1-location;
#X obj 17 99 3000;
#X obj 39 73 t b b;
#X obj 211 134 0;
#X obj 134 75 t b b;
#X obj 90 26 t b b;
#X obj 250 114 t b;
#X obj 251 86 select 0;
#X obj 210 -64 nbx 5 14 -1e+37 1e+37 0 0 empty empty empty 0 -8 0 10
#fcfcfc #000000 #000000 0 256;
#X obj -21 -17 f;
#X obj -48 29 *;
#X obj -48 -41 t f b;
#X obj -22 5 / 25000;
#X obj 278 -64 tgl 15 0 empty empty empty 17 7 0 10 #fcfcfc #000000
#000000 0 1;
#X obj 69 98 0;
#X obj -48 -63 r 1-loc-ind;
#X obj 29 -63 r 1-samp-msec;
#X obj 155 253 bng 15 250 50 0 empty empty empty 17 7 0 10 #fcfcfc
#000000 #000000;
#X obj 238 213 bng 15 250 50 0 empty empty empty 17 7 0 10 #fcfcfc
#000000 #000000;
#X obj -39 75 nbx 5 14 -1e+37 1e+37 0 0 empty empty empty 0 -8 0 10
#fcfcfc #000000 #000000 0 256;
#X obj 148 122 f;
#X obj 148 146 pack f f;
#X obj 133 195 * -1;
#X obj 148 171 route 1 0;
#X connect 0 0 9 0;
#X connect 1 0 0 1;
#X connect 2 0 0 0;
#X connect 2 0 11 0;
#X connect 5 0 4 0;
#X connect 6 0 5 0;
#X connect 6 1 18 0;
#X connect 7 0 3 0;
#X connect 8 0 24 0;
#X connect 8 1 7 0;
#X connect 9 0 8 0;
#X connect 9 1 6 0;
#X connect 10 0 7 0;
#X connect 11 0 10 0;
#X connect 12 0 25 1;
#X connect 13 0 16 0;
#X connect 14 0 5 1;
#X connect 15 0 14 0;
#X connect 15 1 13 0;
#X connect 16 0 14 1;
#X connect 17 0 24 1;
#X connect 18 0 4 0;
#X connect 19 0 15 0;
#X connect 20 0 13 1;
#X connect 23 0 5 1;
#X connect 24 0 25 0;
#X connect 25 0 27 0;
#X connect 26 0 3 0;
#X connect 26 0 21 0;
#X connect 27 0 26 0;
#X connect 27 1 3 0;
#X connect 27 1 22 0;
#X restore 381 355 pd looptest;
#N canvas 0 0 372 294 sampler 0;
#X obj 214 239 outlet~;
#N canvas 0 126 689 642 fft-analysis-2 0;
#X obj 51 477 *~;
#X obj 18 477 *~;
#X obj 18 499 -~;
#X obj 167 475 *~;
#X obj 136 475 *~;
#X obj 136 497 +~;
#X obj 109 193 *~;
#X obj 78 193 *~;
#X obj 50 193 *~;
#X obj 19 193 *~;
#X obj 19 218 +~;
#X obj 127 379 *~;
#X obj 20 593 *~;
#X obj 238 430 rfft~;
#X obj 108 161 rfft~;
#X obj 19 546 rifft~;
#X obj 21 617 outlet~;
#X obj 97 379 *~;
#X obj 97 401 +~;
#X obj 124 218 -~;
#X obj 18 431 *~;
#X obj 51 432 *~;
#X obj 359 469 block~;
#X obj 19 349 +~ 1e-15;
#X obj 19 569 *~;
#X obj 127 614 expr 2/(3*$f1);
#X obj 489 363 loadbang;
#X msg 359 444 set \$1 4;
#X obj 97 425 q8_rsqrt~;
#X text 247 9 recall previous output amplitude. Its phase will be added
to the phase difference we measure from two windows in the the recorded
sound.;
#X obj 121 69 *~;
#X obj 89 69 *~;
#X obj 89 91 +~;
#X obj 159 94 q8_rsqrt~;
#X obj 159 71 +~ 1e-20;
#X obj 73 119 *~;
#X obj 19 118 *~;
#X obj 29 245 lrshift~ 1;
#X obj 24 269 lrshift~ -1;
#X obj 141 245 lrshift~ 1;
#X obj 133 269 lrshift~ -1;
#X obj 35 300 *~;
#X obj 159 312 *~;
#X obj 19 325 +~;
#X obj 125 331 +~;
#X text 253 66 divide by the magnitude to make a unit-magnitude complex
amplitude (phase only). The 1e-20 is to prevent overflows. q8_rsqrt~
is reciprocal square root.;
#X text 258 165 Take FT of the window in back. Multiply its conjugate
by the normalized previous output. The result has the magnitude of
the input sound and phase (previous output phase) minus (back window
phase).;
#X text 252 238 If "lock" is on \, encourage neighboring channels to
stay in phase by adding the two neighboring complex amplitudes. The
result will tend toward the channel with the strongest amplitude. If
the phase relationships between channels in the output and those in
the input are in parallel \, then neighboring channels of the quotient
will all have the same phase and this will not change any phases. (lrshift
shifts the signal to the left or right depending on its argument.)
;
#X text 320 385 'set' message to block;
#X text 323 402 allows variable size;
#X text 259 126 Read two windows \, one 1/4 length behind the other
\, of the input sound \, with Hann window function (see inside).;
#X obj 465 492 512;
#X obj 502 464 0;
#X msg 577 425 \; pd dsp 1 \;;
#X obj 489 393 t b b b b;
#X obj 20 8 tabreceive~ \$1-prev-real-2;
#X obj 73 29 tabreceive~ \$1-prev-imag-2;
#X obj 181 289 r \$1-lock;
#X obj 137 524 tabsend~ \$1-prev-imag-2;
#X obj 136 548 tabsend~ \$1-prev-real-2;
#X obj 52 569 tabreceive~ \$1-hann;
#X obj 127 593 r \$1-window-size;
#X obj 359 420 r \$1-window-size;
#X obj 465 515 s \$1-window-size;
#X obj 504 489 s \$1-transpo;
#X obj 541 466 s \$1-rewind;
#X obj 555 362 bng 15 250 50 0 empty empty empty 17 7 0 10 #fcfcfc
#000000 #000000;
#N canvas 193 24 821 646 read-windows 0;
#X obj 28 588 *~;
#X obj 61 219 f;
#X obj 38 52 /;
#X obj 164 584 *~;
#X obj 61 174 bang~;
#X obj 27 458 line~;
#X obj 38 77 * 1000;
#X obj 103 221 +;
#X obj 169 196 *;
#X obj 90 365 +;
#X obj 62 340 t f f;
#X msg 28 420 \$1 \, \$2 \$3;
#X obj 28 393 pack 0 0 0;
#X obj 83 269 / 1000;
#X obj 61 292 *;
#X text 124 267 reading location (samples);
#X obj 61 484 / 4;
#X obj 169 169 * 0.01;
#X floatatom 277 337 7 0 0 0 - - - 0;
#X obj 277 313 *;
#X obj 300 209 * 0.01;
#X obj 302 230 + 69;
#X obj 303 251 mtof;
#X obj 303 273 / 440;
#X obj 312 313 t b f;
#X obj 29 614 outlet~;
#X obj 164 609 outlet~;
#X msg 565 426 set \$1;
#X text 181 358 stretched window size (samples);
#X msg 660 427 set \$1;
#X msg 503 248 set \$1;
#X obj 491 110 t b f;
#X obj 503 227 f;
#X obj 431 141 int;
#X obj 431 173 sel 0;
#X msg 490 144 1;
#X msg 490 167 0;
#X obj 431 198 del 300;
#X floatatom 47 100 5 0 0 0 - - - 0;
#X obj 38 28 t f b;
#X obj 78 52 samplerate~;
#X obj 38 121 / 4;
#X obj 98 318 / 2;
#X obj 61 318 -;
#X text 134 315 back up 1/2 window;
#X obj 26 484 -~;
#X text 144 0 Read two windows out of the recorded sample \, one 1/4
ahead of the other. The mid point of the front window is specified
by "location". If "speed" is nonzero \, "location" automatically precesses.
;
#X obj 401 484 * -0.5;
#X text 108 483 "back" window 1/4 cycle behind "front" one;
#X text 73 118 computation period (msec) for overlap of 4;
#X text 100 99 msec in a window;
#X obj 401 430 /;
#X obj 401 455 * 1000;
#X obj 401 406 t f b;
#X obj 441 430 samplerate~;
#X obj 401 383 f;
#X text 530 149 if location changes \, update number box;
#X text 529 162 in main window via "location-set" \, but;
#X text 528 177 taking care to limit frequency of updates.;
#X text 367 293 "rewind" control takes us;
#X text 370 311 to a location depending on;
#X text 372 328 stretched window size.;
#X obj 399 555 pack s f;
#X msg 398 581 \; \$1 \$2;
#X obj 401 508 t b f;
#X obj 569 513 t f b;
#X obj 38 4 r \$1-window-size;
#X obj 491 64 r \$1-location;
#X obj 500 86 r \$1-see-loc;
#X obj 169 148 r \$1-speed;
#X obj 136 221 s \$1-see-loc;
#X obj 83 245 r \$1-insamprate;
#X obj 300 187 r \$1-transpo;
#X obj 503 272 s \$1-location-set;
#X obj 565 327 r \$1-location;
#X obj 564 376 s \$1-speed;
#X obj 277 154 r \$1-window-size;
#X obj 565 402 r \$1-speed;
#X obj 660 401 r \$1-transpo;
#X obj 565 451 s \$1-speed-set;
#X obj 660 452 s \$1-transpo-set;
#X obj 569 488 r \$1-auto;
#X obj 581 540 s \$1-rewind;
#X obj 569 566 s \$1-speed;
#X obj 399 530 symbol \$1-location;
#X obj 83 195 r \$1-location;
#X obj 85 557 tabreceive~ \$1-hann;
#X obj 401 350 r \$1-rewind;
#X msg 565 350 0;
#X obj 248 378 r \$1-samp-num;
#X obj 248 405 + 1;
#X obj 178 451 makefilename \$1-sample-%d-2;
#X msg 207 504 set \$1;
#X msg 157 503 set \$1;
#X obj 28 534 tabread4~;
#X obj 163 534 tabread4~;
#X obj 146 429 makefilename \$1-sample-%d-2;
#X connect 0 0 25 0;
#X connect 1 0 7 0;
#X connect 1 0 14 0;
#X connect 2 0 6 0;
#X connect 3 0 26 0;
#X connect 4 0 1 0;
#X connect 5 0 45 0;
#X connect 5 0 95 0;
#X connect 6 0 38 0;
#X connect 6 0 41 0;
#X connect 7 0 1 1;
#X connect 7 0 70 0;
#X connect 8 0 7 1;
#X connect 9 0 12 1;
#X connect 10 0 12 0;
#X connect 10 1 9 0;
#X connect 11 0 5 0;
#X connect 12 0 11 0;
#X connect 13 0 14 1;
#X connect 14 0 43 0;
#X connect 16 0 45 1;
#X connect 17 0 8 0;
#X connect 18 0 16 0;
#X connect 18 0 9 1;
#X connect 18 0 42 0;
#X connect 18 0 55 1;
#X connect 19 0 18 0;
#X connect 20 0 21 0;
#X connect 21 0 22 0;
#X connect 22 0 23 0;
#X connect 23 0 24 0;
#X connect 24 0 19 0;
#X connect 24 1 19 1;
#X connect 27 0 79 0;
#X connect 29 0 80 0;
#X connect 30 0 73 0;
#X connect 32 0 30 0;
#X connect 33 0 34 0;
#X connect 34 0 35 0;
#X connect 34 0 37 0;
#X connect 35 0 33 1;
#X connect 36 0 33 1;
#X connect 37 0 36 0;
#X connect 37 0 32 0;
#X connect 39 0 2 0;
#X connect 39 1 40 0;
#X connect 40 0 2 1;
#X connect 41 0 12 2;
#X connect 41 0 8 1;
#X connect 42 0 43 1;
#X connect 43 0 10 0;
#X connect 45 0 94 0;
#X connect 47 0 64 0;
#X connect 51 0 52 0;
#X connect 52 0 47 0;
#X connect 53 0 51 0;
#X connect 53 1 54 0;
#X connect 54 0 51 1;
#X connect 55 0 53 0;
#X connect 62 0 63 0;
#X connect 64 0 84 0;
#X connect 64 1 62 1;
#X connect 65 0 83 0;
#X connect 65 1 82 0;
#X connect 66 0 39 0;
#X connect 67 0 31 0;
#X connect 68 0 31 0;
#X connect 69 0 17 0;
#X connect 71 0 13 0;
#X connect 72 0 20 0;
#X connect 74 0 88 0;
#X connect 76 0 19 0;
#X connect 77 0 27 0;
#X connect 78 0 29 0;
#X connect 81 0 65 0;
#X connect 84 0 62 0;
#X connect 85 0 1 1;
#X connect 86 0 3 1;
#X connect 86 0 0 1;
#X connect 87 0 55 0;
#X connect 88 0 75 0;
#X connect 89 0 90 0;
#X connect 90 0 91 0;
#X connect 90 0 96 0;
#X connect 91 0 92 0;
#X connect 92 0 95 0;
#X connect 93 0 94 0;
#X connect 94 0 0 0;
#X connect 95 0 3 0;
#X connect 96 0 93 0;
#X restore 109 129 pd read-windows;
#X connect 0 0 2 1;
#X connect 1 0 2 0;
#X connect 2 0 15 0;
#X connect 2 0 59 0;
#X connect 3 0 5 1;
#X connect 4 0 5 0;
#X connect 5 0 15 1;
#X connect 5 0 58 0;
#X connect 6 0 19 1;
#X connect 7 0 19 0;
#X connect 8 0 10 1;
#X connect 9 0 10 0;
#X connect 10 0 38 0;
#X connect 10 0 37 0;
#X connect 10 0 43 0;
#X connect 11 0 18 1;
#X connect 12 0 16 0;
#X connect 13 0 1 1;
#X connect 13 0 3 1;
#X connect 13 1 0 1;
#X connect 13 1 4 1;
#X connect 14 0 9 1;
#X connect 14 0 7 1;
#X connect 14 1 6 1;
#X connect 14 1 8 1;
#X connect 15 0 24 0;
#X connect 17 0 18 0;
#X connect 18 0 28 0;
#X connect 19 0 39 0;
#X connect 19 0 40 0;
#X connect 19 0 44 0;
#X connect 20 0 1 0;
#X connect 20 0 4 0;
#X connect 21 0 0 0;
#X connect 21 0 3 0;
#X connect 23 0 17 1;
#X connect 23 0 17 0;
#X connect 23 0 20 0;
#X connect 24 0 12 0;
#X connect 25 0 12 1;
#X connect 26 0 54 0;
#X connect 27 0 22 0;
#X connect 28 0 20 1;
#X connect 28 0 21 1;
#X connect 30 0 32 1;
#X connect 31 0 32 0;
#X connect 32 0 34 0;
#X connect 33 0 35 1;
#X connect 33 0 36 1;
#X connect 34 0 33 0;
#X connect 35 0 8 0;
#X connect 35 0 7 0;
#X connect 36 0 9 0;
#X connect 36 0 6 0;
#X connect 37 0 41 0;
#X connect 38 0 41 0;
#X connect 39 0 42 0;
#X connect 40 0 42 0;
#X connect 41 0 43 1;
#X connect 42 0 44 1;
#X connect 43 0 23 0;
#X connect 44 0 11 0;
#X connect 44 0 11 1;
#X connect 44 0 21 0;
#X connect 51 0 63 0;
#X connect 52 0 64 0;
#X connect 54 0 51 0;
#X connect 54 1 52 0;
#X connect 54 2 65 0;
#X connect 54 3 53 0;
#X connect 55 0 31 1;
#X connect 55 0 31 0;
#X connect 55 0 36 0;
#X connect 56 0 30 1;
#X connect 56 0 30 0;
#X connect 56 0 35 0;
#X connect 57 0 41 1;
#X connect 57 0 42 1;
#X connect 60 0 24 1;
#X connect 61 0 25 0;
#X connect 62 0 27 0;
#X connect 66 0 54 0;
#X connect 67 0 14 0;
#X connect 67 1 13 0;
#X restore 215 94 pd fft-analysis-2;
#X obj 74 243 outlet~;
#X obj 232 186 line~;
#X obj 100 195 line~;
#X obj 100 148 * -1;
#X obj 100 125 - 1;
#X obj 100 172 pack 0 13;
#X obj 232 164 pack 0 13;
#X obj 74 218 *~;
#X obj 214 213 *~;
#X obj 150 126 r \$1-pan;
#N canvas 236 27 689 642 fft-analysis-1 0;
#X obj 51 477 *~;
#X obj 18 477 *~;
#X obj 18 499 -~;
#X obj 167 475 *~;
#X obj 136 475 *~;
#X obj 136 497 +~;
#X obj 109 193 *~;
#X obj 78 193 *~;
#X obj 50 193 *~;
#X obj 19 193 *~;
#X obj 19 218 +~;
#X obj 127 379 *~;
#X obj 20 593 *~;
#X obj 238 430 rfft~;
#X obj 108 161 rfft~;
#X obj 19 546 rifft~;
#X obj 21 617 outlet~;
#X obj 97 379 *~;
#X obj 97 401 +~;
#X obj 124 218 -~;
#X obj 18 431 *~;
#X obj 51 432 *~;
#X obj 359 469 block~;
#X obj 19 349 +~ 1e-15;
#X obj 19 569 *~;
#X obj 127 614 expr 2/(3*$f1);
#X obj 489 363 loadbang;
#X msg 359 444 set \$1 4;
#X obj 97 425 q8_rsqrt~;
#N canvas 203 122 821 646 read-windows 0;
#X obj 28 588 *~;
#X obj 61 219 f;
#X obj 38 52 /;
#X obj 164 584 *~;
#X obj 61 174 bang~;
#X obj 27 458 line~;
#X obj 38 77 * 1000;
#X obj 103 221 +;
#X obj 169 196 *;
#X obj 90 365 +;
#X obj 62 340 t f f;
#X msg 28 420 \$1 \, \$2 \$3;
#X obj 28 393 pack 0 0 0;
#X obj 83 269 / 1000;
#X obj 61 292 *;
#X text 124 267 reading location (samples);
#X obj 61 484 / 4;
#X obj 169 169 * 0.01;
#X floatatom 277 337 7 0 0 0 - - - 0;
#X obj 277 313 *;
#X obj 300 209 * 0.01;
#X obj 302 230 + 69;
#X obj 303 251 mtof;
#X obj 303 273 / 440;
#X obj 312 313 t b f;
#X obj 29 614 outlet~;
#X obj 164 609 outlet~;
#X msg 565 426 set \$1;
#X text 181 358 stretched window size (samples);
#X msg 660 427 set \$1;
#X msg 503 248 set \$1;
#X obj 491 110 t b f;
#X obj 503 227 f;
#X obj 431 141 int;
#X obj 431 173 sel 0;
#X msg 490 144 1;
#X msg 490 167 0;
#X obj 431 198 del 300;
#X floatatom 47 100 5 0 0 0 - - - 0;
#X obj 38 28 t f b;
#X obj 78 52 samplerate~;
#X obj 38 121 / 4;
#X obj 98 318 / 2;
#X obj 61 318 -;
#X text 134 315 back up 1/2 window;
#X obj 26 484 -~;
#X text 144 0 Read two windows out of the recorded sample \, one 1/4
ahead of the other. The mid point of the front window is specified
by "location". If "speed" is nonzero \, "location" automatically precesses.
;
#X obj 401 484 * -0.5;
#X text 108 483 "back" window 1/4 cycle behind "front" one;
#X text 73 118 computation period (msec) for overlap of 4;
#X text 100 99 msec in a window;
#X obj 401 430 /;
#X obj 401 455 * 1000;
#X obj 401 406 t f b;
#X obj 441 430 samplerate~;
#X obj 401 383 f;
#X text 530 149 if location changes \, update number box;
#X text 529 162 in main window via "location-set" \, but;
#X text 528 177 taking care to limit frequency of updates.;
#X text 367 293 "rewind" control takes us;
#X text 370 311 to a location depending on;
#X text 372 328 stretched window size.;
#X obj 399 555 pack s f;
#X msg 398 581 \; \$1 \$2;
#X obj 401 508 t b f;
#X obj 569 513 t f b;
#X obj 38 4 r \$1-window-size;
#X obj 491 64 r \$1-location;
#X obj 500 86 r \$1-see-loc;
#X obj 169 148 r \$1-speed;
#X obj 136 221 s \$1-see-loc;
#X obj 83 245 r \$1-insamprate;
#X obj 300 187 r \$1-transpo;
#X obj 503 272 s \$1-location-set;
#X obj 565 327 r \$1-location;
#X obj 564 376 s \$1-speed;
#X obj 277 154 r \$1-window-size;
#X obj 565 402 r \$1-speed;
#X obj 660 401 r \$1-transpo;
#X obj 565 451 s \$1-speed-set;
#X obj 660 452 s \$1-transpo-set;
#X obj 569 488 r \$1-auto;
#X obj 581 540 s \$1-rewind;
#X obj 569 566 s \$1-speed;
#X obj 399 530 symbol \$1-location;
#X obj 83 195 r \$1-location;
#X obj 85 557 tabreceive~ \$1-hann;
#X obj 401 350 r \$1-rewind;
#X msg 565 350 0;
#X obj 248 378 r \$1-samp-num;
#X obj 248 405 + 1;
#X obj 146 429 makefilename \$1-sample-%d-1;
#X msg 207 504 set \$1;
#X msg 157 503 set \$1;
#X obj 28 534 tabread4~;
#X obj 163 534 tabread4~;
#X obj 178 451 makefilename \$1-sample-%d-1;
#X connect 0 0 25 0;
#X connect 1 0 7 0;
#X connect 1 0 14 0;
#X connect 2 0 6 0;
#X connect 3 0 26 0;
#X connect 4 0 1 0;
#X connect 5 0 45 0;
#X connect 5 0 95 0;
#X connect 6 0 38 0;
#X connect 6 0 41 0;
#X connect 7 0 1 1;
#X connect 7 0 70 0;
#X connect 8 0 7 1;
#X connect 9 0 12 1;
#X connect 10 0 12 0;
#X connect 10 1 9 0;
#X connect 11 0 5 0;
#X connect 12 0 11 0;
#X connect 13 0 14 1;
#X connect 14 0 43 0;
#X connect 16 0 45 1;
#X connect 17 0 8 0;
#X connect 18 0 16 0;
#X connect 18 0 9 1;
#X connect 18 0 42 0;
#X connect 18 0 55 1;
#X connect 19 0 18 0;
#X connect 20 0 21 0;
#X connect 21 0 22 0;
#X connect 22 0 23 0;
#X connect 23 0 24 0;
#X connect 24 0 19 0;
#X connect 24 1 19 1;
#X connect 27 0 79 0;
#X connect 29 0 80 0;
#X connect 30 0 73 0;
#X connect 32 0 30 0;
#X connect 33 0 34 0;
#X connect 34 0 35 0;
#X connect 34 0 37 0;
#X connect 35 0 33 1;
#X connect 36 0 33 1;
#X connect 37 0 36 0;
#X connect 37 0 32 0;
#X connect 39 0 2 0;
#X connect 39 1 40 0;
#X connect 40 0 2 1;
#X connect 41 0 12 2;
#X connect 41 0 8 1;
#X connect 42 0 43 1;
#X connect 43 0 10 0;
#X connect 45 0 94 0;
#X connect 47 0 64 0;
#X connect 51 0 52 0;
#X connect 52 0 47 0;
#X connect 53 0 51 0;
#X connect 53 1 54 0;
#X connect 54 0 51 1;
#X connect 55 0 53 0;
#X connect 62 0 63 0;
#X connect 64 0 84 0;
#X connect 64 1 62 1;
#X connect 65 0 83 0;
#X connect 65 1 82 0;
#X connect 66 0 39 0;
#X connect 67 0 31 0;
#X connect 68 0 31 0;
#X connect 69 0 17 0;
#X connect 71 0 13 0;
#X connect 72 0 20 0;
#X connect 74 0 88 0;
#X connect 76 0 19 0;
#X connect 77 0 27 0;
#X connect 78 0 29 0;
#X connect 81 0 65 0;
#X connect 84 0 62 0;
#X connect 85 0 1 1;
#X connect 86 0 3 1;
#X connect 86 0 0 1;
#X connect 87 0 55 0;
#X connect 88 0 75 0;
#X connect 89 0 90 0;
#X connect 90 0 91 0;
#X connect 90 0 96 0;
#X connect 91 0 93 0;
#X connect 92 0 95 0;
#X connect 93 0 94 0;
#X connect 94 0 0 0;
#X connect 95 0 3 0;
#X connect 96 0 92 0;
#X restore 109 133 pd read-windows;
#X text 247 9 recall previous output amplitude. Its phase will be added
to the phase difference we measure from two windows in the the recorded
sound.;
#X obj 121 69 *~;
#X obj 89 69 *~;
#X obj 89 91 +~;
#X obj 159 94 q8_rsqrt~;
#X obj 159 71 +~ 1e-20;
#X obj 73 119 *~;
#X obj 19 118 *~;
#X obj 29 245 lrshift~ 1;
#X obj 24 269 lrshift~ -1;
#X obj 141 245 lrshift~ 1;
#X obj 133 269 lrshift~ -1;
#X obj 35 300 *~;
#X obj 159 312 *~;
#X obj 19 325 +~;
#X obj 125 331 +~;
#X text 253 66 divide by the magnitude to make a unit-magnitude complex
amplitude (phase only). The 1e-20 is to prevent overflows. q8_rsqrt~
is reciprocal square root.;
#X text 258 165 Take FT of the window in back. Multiply its conjugate
by the normalized previous output. The result has the magnitude of
the input sound and phase (previous output phase) minus (back window
phase).;
#X text 252 238 If "lock" is on \, encourage neighboring channels to
stay in phase by adding the two neighboring complex amplitudes. The
result will tend toward the channel with the strongest amplitude. If
the phase relationships between channels in the output and those in
the input are in parallel \, then neighboring channels of the quotient
will all have the same phase and this will not change any phases. (lrshift
shifts the signal to the left or right depending on its argument.)
;
#X text 320 385 'set' message to block;
#X text 323 402 allows variable size;
#X text 259 126 Read two windows \, one 1/4 length behind the other
\, of the input sound \, with Hann window function (see inside).;
#X obj 502 464 0;
#X msg 577 425 \; pd dsp 1 \;;
#X obj 489 393 t b b b b;
#X obj 181 289 r \$1-lock;
#X obj 52 569 tabreceive~ \$1-hann;
#X obj 127 593 r \$1-window-size;
#X obj 359 420 r \$1-window-size;
#X obj 465 515 s \$1-window-size;
#X obj 504 489 s \$1-transpo;
#X obj 541 466 s \$1-rewind;
#X obj 20 8 tabreceive~ \$1-prev-real-1;
#X obj 73 29 tabreceive~ \$1-prev-imag-1;
#X obj 137 524 tabsend~ \$1-prev-imag-1;
#X obj 136 548 tabsend~ \$1-prev-real-1;
#X obj 554 365 bng 15 250 50 0 empty empty empty 17 7 0 10 #fcfcfc
#000000 #000000;
#X obj 465 492 512;
#X connect 0 0 2 1;
#X connect 1 0 2 0;
#X connect 2 0 15 0;
#X connect 2 0 65 0;
#X connect 3 0 5 1;
#X connect 4 0 5 0;
#X connect 5 0 15 1;
#X connect 5 0 64 0;
#X connect 6 0 19 1;
#X connect 7 0 19 0;
#X connect 8 0 10 1;
#X connect 9 0 10 0;
#X connect 10 0 39 0;
#X connect 10 0 38 0;
#X connect 10 0 44 0;
#X connect 11 0 18 1;
#X connect 12 0 16 0;
#X connect 13 0 1 1;
#X connect 13 0 3 1;
#X connect 13 1 0 1;
#X connect 13 1 4 1;
#X connect 14 0 9 1;
#X connect 14 0 7 1;
#X connect 14 1 6 1;
#X connect 14 1 8 1;
#X connect 15 0 24 0;
#X connect 17 0 18 0;
#X connect 18 0 28 0;
#X connect 19 0 40 0;
#X connect 19 0 41 0;
#X connect 19 0 45 0;
#X connect 20 0 1 0;
#X connect 20 0 4 0;
#X connect 21 0 0 0;
#X connect 21 0 3 0;
#X connect 23 0 17 1;
#X connect 23 0 17 0;
#X connect 23 0 20 0;
#X connect 24 0 12 0;
#X connect 25 0 12 1;
#X connect 26 0 54 0;
#X connect 27 0 22 0;
#X connect 28 0 20 1;
#X connect 28 0 21 1;
#X connect 29 0 14 0;
#X connect 29 1 13 0;
#X connect 31 0 33 1;
#X connect 32 0 33 0;
#X connect 33 0 35 0;
#X connect 34 0 36 1;
#X connect 34 0 37 1;
#X connect 35 0 34 0;
#X connect 36 0 8 0;
#X connect 36 0 7 0;
#X connect 37 0 9 0;
#X connect 37 0 6 0;
#X connect 38 0 42 0;
#X connect 39 0 42 0;
#X connect 40 0 43 0;
#X connect 41 0 43 0;
#X connect 42 0 44 1;
#X connect 43 0 45 1;
#X connect 44 0 23 0;
#X connect 45 0 11 0;
#X connect 45 0 11 1;
#X connect 45 0 21 0;
#X connect 52 0 60 0;
#X connect 54 0 67 0;
#X connect 54 1 52 0;
#X connect 54 2 61 0;
#X connect 54 3 53 0;
#X connect 55 0 42 1;
#X connect 55 0 43 1;
#X connect 56 0 24 1;
#X connect 57 0 25 0;
#X connect 58 0 27 0;
#X connect 62 0 32 1;
#X connect 62 0 32 0;
#X connect 62 0 37 0;
#X connect 63 0 31 1;
#X connect 63 0 31 0;
#X connect 63 0 36 0;
#X connect 66 0 54 0;
#X connect 67 0 59 0;
#X restore 75 95 pd fft-analysis-1;
#X obj 171 67 switch~;
#X obj 171 39 inlet;
#X connect 1 0 10 0;
#X connect 3 0 10 1;
#X connect 4 0 9 1;
#X connect 5 0 7 0;
#X connect 6 0 5 0;
#X connect 7 0 4 0;
#X connect 8 0 3 0;
#X connect 9 0 2 0;
#X connect 10 0 0 0;
#X connect 11 0 8 0;
#X connect 11 0 6 0;
#X connect 12 0 9 0;
#X connect 14 0 13 0;
#X restore 154 230 pd sampler;
#X obj 110 380 outlet~;
#X obj 290 370 outlet~;
#X obj 63 268 catch~ \$1-audio-in-1;
#X obj 253 268 catch~ \$1-audio-in-2;
#X obj 114 348 *~;
#X obj 134 317 line~;
#X obj 134 297 pack 0 13;
#X obj 254 351 *~;
#X obj 273 327 line~;
#X obj 273 307 pack 0 13;
#X obj 195 268 r \$1-vol;
#N canvas 160 199 619 433 looper 0;
#X obj 134 13 metro;
#X obj 38 163 3000;
#X obj 60 137 t b b;
#X obj 197 136 0;
#X obj 134 70 t b b;
#X obj 237 93 t b;
#X obj 237 68 select 0;
#X obj -21 -17 f;
#X obj -48 29 *;
#X obj -48 -41 t f b;
#X obj -22 5 / 25000;
#X obj 90 162 0;
#X obj 134 124 f;
#X obj 134 148 pack f f;
#X obj 133 195 * -1;
#X obj 134 173 route 1 0;
#X obj 134 39 t b b b;
#X obj 191 287 +;
#X obj 293 148 random 5000;
#X obj 252 131 f;
#X obj 289 93 t b;
#X obj 294 181 - 2500;
#X obj 476 14 samplerate~;
#X obj 476 36 / 1000;
#X obj 462 59 *;
#X obj 376 149 / 2;
#X obj 460 82 t f f f;
#X obj 461 108 / 100;
#X obj 381 98 *;
#X obj 358 120 t f f;
#X obj 364 60 f;
#X obj 443 -42 t b f b;
#X obj 331 23 t b f;
#X obj 317 233 / 2;
#X obj -48 -63 r \$1-loc-ind;
#X obj 29 -63 r \$1-samp-msec;
#X obj 120 -63 r \$1-loop;
#X obj 184 -63 r \$1-loop-len;
#X obj 273 -63 r \$1-loop-sp;
#X obj 355 -63 r \$1-loop-rev;
#X obj 443 -62 r \$1-loop-len;
#X obj 333 -8 r \$1-jit;
#X obj 197 240 s \$1-speed;
#X obj 193 310 s \$1-location;
#X obj 460 196 loadbang;
#X obj 462 222 100;
#X obj 450 250 s \$1-loop-sp-in;
#X obj 389 230 1000;
#X obj 360 280 s \$1-loop-len-in;
#X connect 0 0 16 0;
#X connect 1 0 17 1;
#X connect 2 0 1 0;
#X connect 2 1 11 0;
#X connect 3 0 42 0;
#X connect 4 0 12 0;
#X connect 4 1 3 0;
#X connect 5 0 3 0;
#X connect 6 0 5 0;
#X connect 6 1 20 0;
#X connect 7 0 10 0;
#X connect 8 0 1 1;
#X connect 9 0 8 0;
#X connect 9 1 7 0;
#X connect 10 0 8 1;
#X connect 12 0 13 0;
#X connect 13 0 15 0;
#X connect 14 0 42 0;
#X connect 15 0 14 0;
#X connect 15 1 42 0;
#X connect 16 0 4 0;
#X connect 16 1 2 0;
#X connect 16 2 18 0;
#X connect 17 0 43 0;
#X connect 18 0 21 0;
#X connect 19 0 42 0;
#X connect 20 0 19 0;
#X connect 21 0 33 0;
#X connect 22 0 23 0;
#X connect 23 0 24 1;
#X connect 24 0 26 0;
#X connect 25 0 21 1;
#X connect 26 0 27 0;
#X connect 27 0 28 1;
#X connect 28 0 29 0;
#X connect 29 0 18 1;
#X connect 29 1 25 0;
#X connect 30 0 28 0;
#X connect 31 0 30 0;
#X connect 31 1 24 0;
#X connect 31 2 22 0;
#X connect 32 0 30 0;
#X connect 32 1 30 1;
#X connect 33 0 17 0;
#X connect 34 0 9 0;
#X connect 35 0 7 1;
#X connect 36 0 0 0;
#X connect 36 0 6 0;
#X connect 37 0 0 1;
#X connect 38 0 13 1;
#X connect 38 0 19 1;
#X connect 39 0 12 1;
#X connect 40 0 31 0;
#X connect 41 0 32 0;
#X connect 44 0 45 0;
#X connect 44 0 47 0;
#X connect 45 0 46 0;
#X connect 47 0 48 0;
#X restore 619 245 pd looper;
#X obj 42 2 cnv 15 146 73 empty empty empty 20 12 0 14 #7c7c7c #404040
0;
#X obj 45 41 nbx 13 14 -1e+37 1e+37 0 0 empty \$1-location-set location
0 -6 0 10 #202020 #dcdcdc #000000 0 256;
#X obj 1 15 cnv 15 40 59 empty empty empty 20 12 0 14 #e0e0e0 #404040
0;
#X obj 1 37 bng 15 250 50 0 empty empty open 17 7 0 10 #202020 #000000
#000000;
#X obj 1 55 bng 15 250 50 0 empty empty rec 17 7 0 10 #202020 #000000
#000000;
#X obj 45 59 bng 12 250 50 0 \$1-play empty play 17 7 0 10 #7cb47c
#000000 #000000;
#X obj 89 59 nbx 4 12 -1e+37 1e+37 0 0 \$1-transpo \$1-transpo-set
pitch 47 6 0 10 #202020 #dcdcdc #000000 0 256;
#X obj 170 16 vsl 17 56 0 2 0 0 \$1-vol \$1-vol-set empty 0 -9 0 10
#bc7c7c #7cfc7c #000000 0 1;
#X obj 191 65 hsl 396 10 -2 25000 0 0 \$1-loc-ind \$1-loc-ind-set empty
-2 -8 0 10 #202020 #7c7c7c #000000 0 1;
#X obj 45 2 hsl 140 12 0 1 0 0 \$1-pan \$1-pan-set empty -2 -8 0 10
#404068 #009c54 #000000 0 1;
#X obj 44 16 nbx 4 12 -1e+37 1e+37 0 0 \$1-speed \$1-speed-set speed
47 6 0 10 #202020 #dcdcdc #000000 0 256;
#X obj 188 2 cnv 15 400 63 empty empty empty 20 12 0 14 #606070 #404040
0;
#X obj 9 19 tgl 15 0 empty \$1-on on 17 7 0 10 #fcfcfc #000000 #000000
0 1;
#N canvas 0 22 450 300 (subpatch) 0;
#X array \$1-sample-vis-1 2000 float 0;
#X coords 0 1 1999 -1 400 31 1;
#X restore 188 2 graph;
#N canvas 0 22 450 300 (subpatch) 0;
#X array \$1-sample-vis-2 2000 float 0;
#X coords 0 1 1999 -1 400 31 1;
#X restore 188 34 graph;
#X obj 143 26 hradio 12 1 0 2 \$1-samp-num \$1-samp-num-in 1/2 0 -5
0 10 #202020 #fcfcfc #000000 0;
#X obj 589 2 cnv 15 60 80 empty empty empty 20 12 0 14 #e0e0e0 #404040
0;
#X obj 594 65 nbx 4 12 -1e+37 1e+37 0 0 \$1-loop-len \$1-loop-len-in
len -2 -8 0 9 #000000 #fcfcfc #000000 0 256;
#X obj 595 14 tgl 12 0 \$1-loop \$1-loop-in loop -4 -6 0 9 #202020
#fcfcfc #000000 0 1;
#X obj 633 14 tgl 12 0 \$1-loop-rev \$1-loop-rev-in rev -4 -6 0 9 #202020
#fcfcfc #000000 0 1;
#X obj 610 51 nbx 3 12 0 400 0 0 \$1-jit \$1-jit-in jit 20 -6 0 9 #000000
#fcfcfc #000000 0 256;
#X obj 593 37 nbx 3 12 -1e+37 1e+37 0 0 \$1-loop-sp \$1-loop-sp-in
speed 0 -6 0 9 #000000 #fcfcfc #000000 0 256;
#X obj 189 358 dac~;
#X obj 182 120 inlet~;
#X obj 291 123 inlet~;
#X connect 3 0 4 0;
#X connect 3 0 21 0;
#X connect 4 0 5 0;
#X connect 8 0 9 0;
#X connect 9 0 7 0;
#X connect 10 0 11 0;
#X connect 12 0 20 0;
#X connect 13 0 12 1;
#X connect 14 0 18 0;
#X connect 15 0 16 0;
#X connect 15 0 10 0;
#X connect 17 0 19 0;
#X connect 18 0 17 0;
#X connect 18 1 15 0;
#X connect 18 2 12 0;
#X connect 20 0 15 1;
#X connect 21 0 22 0;
#X connect 24 0 29 0;
#X connect 24 1 32 0;
#X connect 27 0 29 0;
#X connect 28 0 32 0;
#X connect 29 0 59 0;
#X connect 29 0 25 0;
#X connect 30 0 29 1;
#X connect 31 0 30 0;
#X connect 32 0 59 1;
#X connect 32 0 26 0;
#X connect 33 0 32 1;
#X connect 34 0 33 0;
#X connect 35 0 34 0;
#X connect 35 0 31 0;
#X connect 40 0 0 0;
#X connect 41 0 0 1;
#X connect 49 0 24 0;
#X connect 60 0 29 0;
#X connect 61 0 32 0;
#X coords 0 -1 1 1 650 80 1 0 0;
