#N canvas 2 18 1596 835 10;
#X obj 119 213 outlet~;
#X obj 193 172 *~;
#X obj 57 177 *~;
#X obj 88 43 select 1 0;
#X obj 18 159 inlet~;
#X obj 147 156 inlet~;
#X text 146 142 in 2;
#X text 45 123 in 1;
#X obj 89 19 inlet;
#X obj 153 111 line;
#X obj 14 89 line;
#X obj 86 109 line;
#X obj 220 90 line;
#X obj 13 66 pack 1 10;
#X obj 84 88 pack 0 10;
#X obj 153 91 pack 0 10;
#X obj 219 67 pack 1 10;
#X connect 1 0 0 0;
#X connect 2 0 0 0;
#X connect 3 0 13 0;
#X connect 3 0 15 0;
#X connect 3 1 14 0;
#X connect 3 1 16 0;
#X connect 4 0 2 0;
#X connect 5 0 1 0;
#X connect 8 0 3 0;
#X connect 9 0 1 1;
#X connect 10 0 2 1;
#X connect 11 0 2 1;
#X connect 12 0 1 1;
#X connect 13 0 10 0;
#X connect 14 0 11 0;
#X connect 15 0 9 0;
#X connect 16 0 12 0;
