#N canvas 171 191 1203 678 12;
#X obj 1 25 cnv 15 909 253 empty empty empty 20 12 0 14 #a11d49 #404040
0;
#N canvas 482 167 518 545 guts 0;
#X obj 54 190 mtof;
#X obj 54 160 nbx 5 14 -1e+37 1e+37 0 0 empty empty empty 0 -8 0 10
#fcfcfc #000000 #000000 40 256 0;
#X obj 170 190 s trigger;
#X obj 170 110 bng 65 250 50 0 empty empty empty 17 7 0 10 #fcfcfc
#000000 #000000;
#X obj 114 160 t f b;
#X obj 400 247 % 3;
#X obj 400 274 select 0;
#X obj 400 220 random 100;
#X obj 95 299 f;
#X obj 95 329 *;
#X obj 300 147 % 3;
#X obj 300 170 select 0, f 9;
#X obj 300 210 bng 15 250 50 0 empty empty empty 17 7 0 10 #fcfcfc
#000000 #000000;
#X obj 250 250 delay;
#X obj 300 250 nbx 5 14 -1e+37 1e+37 0 0 empty empty empty 0 -8 0 10
#fcfcfc #000000 #000000 8 256 0;
#X obj 350 210 bng 15 250 50 0 empty empty empty 17 7 0 10 #fcfcfc
#000000 #000000;
#X obj 54 220 t f f;
#X obj 300 120 random 30;
#X obj 400 352 + 1;
#X obj 75 399 line 600;
#X msg 250 210 stop;
#X msg 54 360 \$1 0;
#X obj 400 326 / 50;
#X obj 54 60 nop;
#X obj 400 300 random 10;
#X obj 50 90 int;
#N canvas 0 69 1600 806 partials 0;
#X text 216 125 arguments:;
#X text 210 150 1 amplitude \; 2 relative duration (* actual) \; 3
relative frequency (* actual) \; 4 detune (+ rel * actual);
#X obj 50 0 partial 1 1 1 0;
#X obj 50 30 partial 1 1 1.005 0;
#X obj 50 60 partial 1 1 2 0;
#X obj 50 90 partial 1 1 1.05 0;
#X obj 50 120 partial 1 1 1.0005 0;
#X obj 50 150 partial 1 1 0.99 0;
#X obj 50 210 partial 1 1 3 0;
#X obj 50 180 partial 1 1 2.03 0;
#X obj 210 0 partial 1 1 1.023 0;
#X obj 210 30 partial 1 1 1.00333 0;
#X obj 210 60 partial 1 1 5 0;
#X obj 210 90 partial 0.5 1 3.3333 0;
#X obj -10 20 inlet;
#X obj 420 30 inlet;
#X obj 150 370 outlet~;
#X connect 2 0 16 0;
#X connect 3 0 16 0;
#X connect 4 0 16 0;
#X connect 5 0 16 0;
#X connect 6 0 16 0;
#X connect 7 0 16 0;
#X connect 8 0 16 0;
#X connect 9 0 16 0;
#X connect 10 0 16 0;
#X connect 11 0 16 0;
#X connect 12 0 16 0;
#X connect 13 0 16 0;
#X connect 14 0 8 0;
#X connect 14 0 13 0;
#X connect 14 0 12 0;
#X connect 14 0 11 0;
#X connect 14 0 10 0;
#X connect 14 0 9 0;
#X connect 14 0 7 0;
#X connect 14 0 6 0;
#X connect 14 0 5 0;
#X connect 14 0 4 0;
#X connect 14 0 3 0;
#X connect 14 0 2 0;
#X connect 15 0 2 1;
#X connect 15 0 9 1;
#X connect 15 0 8 1;
#X connect 15 0 7 1;
#X connect 15 0 6 1;
#X connect 15 0 5 1;
#X connect 15 0 4 1;
#X connect 15 0 3 1;
#X connect 15 0 13 1;
#X connect 15 0 12 1;
#X connect 15 0 11 1;
#X connect 15 0 10 1;
#X restore 74 450 pd partials;
#X obj 54 30 inlet;
#X obj 394 120 inlet;
#X obj 164 400 inlet;
#X msg 95 359 \$1 400;
#X obj 74 500 outlet~;
#X connect 0 0 16 0;
#X connect 1 0 0 0;
#X connect 3 0 2 0;
#X connect 3 0 20 0;
#X connect 3 0 7 0;
#X connect 3 0 17 0;
#X connect 4 1 3 0;
#X connect 5 0 6 0;
#X connect 6 0 24 0;
#X connect 7 0 5 0;
#X connect 8 0 9 0;
#X connect 9 0 30 0;
#X connect 10 0 11 0;
#X connect 11 0 12 0;
#X connect 11 1 15 0;
#X connect 12 0 13 0;
#X connect 13 0 8 0;
#X connect 14 0 13 1;
#X connect 16 0 21 0;
#X connect 16 1 8 1;
#X connect 17 0 10 0;
#X connect 18 0 9 1;
#X connect 19 0 26 0;
#X connect 20 0 13 0;
#X connect 21 0 19 0;
#X connect 22 0 18 0;
#X connect 23 0 3 0;
#X connect 23 0 25 0;
#X connect 24 0 22 0;
#X connect 25 0 1 0;
#X connect 25 0 4 0;
#X connect 26 0 31 0;
#X connect 27 0 23 0;
#X connect 28 0 14 0;
#X connect 29 0 26 1;
#X connect 30 0 19 0;
#X restore 320 289 pd guts;
#X obj 420 44 nbx 5 22 -1e+37 1e+37 0 0 empty empty duration 0 -8 0
10 #fcfcfc #000000 #000000 313 256 0;
#X obj 510 44 nbx 5 22 -1e+37 1e+37 0 0 empty empty drag\ delay 0 -8
0 10 #fcfcfc #000000 #000000 8 256 0;
#X obj 0 69 aseq-32;
#X obj 660 379 outlet~;
#X obj 770 379 outlet;
#X obj 540 109 s trigger;
#X obj 596 29 bng 38 250 50 0 empty empty empty 17 7 0 10 #fcfcfc #000000
#000000;
#X obj 641 29 ctimeenv;
#X obj 641 114 bpm_delay;
#X obj 641 193 reverbgui~;
#X obj 130 370 inlet;
#X obj 190 370 inlet;
#X obj 250 370 inlet;
#X obj 850 380 outlet;
#X connect 1 0 9 0;
#X connect 2 0 1 1;
#X connect 3 0 1 2;
#X connect 4 1 1 0;
#X connect 4 1 9 1;
#X connect 4 2 6 0;
#X connect 4 3 10 1;
#X connect 4 4 15 0;
#X connect 8 0 7 0;
#X connect 8 0 4 0;
#X connect 9 0 10 0;
#X connect 10 0 11 0;
#X connect 10 0 11 1;
#X connect 11 0 5 0;
#X connect 11 1 5 0;
#X connect 12 0 4 0;
#X connect 13 0 4 1;
#X connect 14 0 4 2;
#X coords 0 -1 1 1 911 254 1 0 24;
