#N canvas 86 115 1259 625 12;
#N canvas 765 228 518 545 guts 0;
#X obj 54 190 mtof;
#X obj 54 160 nbx 5 14 -1e+37 1e+37 0 0 empty empty empty 0 -8 0 10
#fcfcfc #000000 #000000 0 256;
#X obj 170 190 s trigger;
#X obj 170 110 bng 65 250 50 0 empty empty empty 17 7 0 10 #fcfcfc
#000000 #000000;
#X obj 114 160 t f b;
#X obj 400 247 % 3;
#X obj 400 274 select 0;
#X obj 400 220 random 100;
#X obj 95 299 f;
#X obj 95 329 *;
#X obj 300 147 % 3;
#X obj 300 170 select 0, f 9;
#X obj 300 210 bng 15 250 50 0 empty empty empty 17 7 0 10 #fcfcfc
#000000 #000000;
#X obj 250 250 delay;
#X obj 300 250 nbx 5 14 -1e+37 1e+37 0 0 empty empty empty 0 -8 0 10
#fcfcfc #000000 #000000 0 256;
#X obj 350 210 bng 15 250 50 0 empty empty empty 17 7 0 10 #fcfcfc
#000000 #000000;
#X obj 54 220 t f f;
#X obj 300 120 random 30;
#X obj 400 352 + 1;
#X obj 75 399 line 600;
#X msg 250 210 stop;
#X msg 54 360 \$1 0;
#X obj 400 326 / 50;
#X obj 400 300 random 10;
#X obj 50 90 int;
#N canvas 0 69 1600 804 partials 0;
#X text 216 125 arguments:;
#X text 210 150 1 amplitude \; 2 relative duration (* actual) \; 3
relative frequency (* actual) \; 4 detune (+ rel * actual);
#X obj 50 0 partial 1 1 1 0;
#X obj 50 30 partial 1 1 1.005 0;
#X obj 50 60 partial 1 1 2 0;
#X obj 50 90 partial 1 1 1.05 0;
#X obj 50 120 partial 1 1 1.0005 0;
#X obj 50 150 partial 1 1 0.99 0;
#X obj 50 210 partial 1 1 3 0;
#X obj 50 180 partial 1 1 2.03 0;
#X obj 210 0 partial 1 1 1.023 0;
#X obj 210 30 partial 1 1 1.00333 0;
#X obj 210 60 partial 1 1 5 0;
#X obj 210 90 partial 0.5 1 3.3333 0;
#X obj -10 20 inlet;
#X obj 420 30 inlet;
#X obj 150 370 outlet~;
#X connect 2 0 16 0;
#X connect 3 0 16 0;
#X connect 4 0 16 0;
#X connect 5 0 16 0;
#X connect 6 0 16 0;
#X connect 7 0 16 0;
#X connect 8 0 16 0;
#X connect 9 0 16 0;
#X connect 10 0 16 0;
#X connect 11 0 16 0;
#X connect 12 0 16 0;
#X connect 13 0 16 0;
#X connect 14 0 8 0;
#X connect 14 0 13 0;
#X connect 14 0 12 0;
#X connect 14 0 11 0;
#X connect 14 0 10 0;
#X connect 14 0 9 0;
#X connect 14 0 7 0;
#X connect 14 0 6 0;
#X connect 14 0 5 0;
#X connect 14 0 4 0;
#X connect 14 0 3 0;
#X connect 14 0 2 0;
#X connect 15 0 2 1;
#X connect 15 0 9 1;
#X connect 15 0 8 1;
#X connect 15 0 7 1;
#X connect 15 0 6 1;
#X connect 15 0 5 1;
#X connect 15 0 4 1;
#X connect 15 0 3 1;
#X connect 15 0 13 1;
#X connect 15 0 12 1;
#X connect 15 0 11 1;
#X connect 15 0 10 1;
#X restore 74 450 pd partials;
#X obj 50 38 inlet;
#X obj 394 120 inlet;
#X obj 164 400 inlet;
#X msg 95 359 \$1 400;
#X obj 74 500 outlet~;
#X connect 0 0 16 0;
#X connect 1 0 0 0;
#X connect 3 0 2 0;
#X connect 3 0 20 0;
#X connect 3 0 7 0;
#X connect 3 0 17 0;
#X connect 4 1 3 0;
#X connect 5 0 6 0;
#X connect 6 0 23 0;
#X connect 7 0 5 0;
#X connect 8 0 9 0;
#X connect 9 0 29 0;
#X connect 10 0 11 0;
#X connect 11 0 12 0;
#X connect 11 1 15 0;
#X connect 12 0 13 0;
#X connect 13 0 8 0;
#X connect 14 0 13 1;
#X connect 16 0 21 0;
#X connect 16 1 8 1;
#X connect 17 0 10 0;
#X connect 18 0 9 1;
#X connect 19 0 25 0;
#X connect 20 0 13 0;
#X connect 21 0 19 0;
#X connect 22 0 18 0;
#X connect 23 0 22 0;
#X connect 24 0 1 0;
#X connect 24 0 4 0;
#X connect 25 0 30 0;
#X connect 26 0 24 0;
#X connect 26 0 3 0;
#X connect 27 0 14 0;
#X connect 28 0 25 1;
#X connect 29 0 19 0;
#X restore 132 265 pd guts;
#X obj 135 131 nbx 5 15 -1e+37 1e+37 0 0 empty empty note\\\ len 0
-8 0 10 #fcfcfc #000000 #000000 0 256;
#X obj 136 163 nbx 5 15 -1e+37 1e+37 0 0 empty empty bend\\\ delay
0 -8 0 10 #fcfcfc #000000 #000000 0 256;
#X obj 103 129 bng 20 250 50 0 empty empty empty 17 7 0 10 #fcfcfc
#000000 #000000;
#X obj 29 64 inlet;
#X obj 134 298 outlet~;
#X connect 0 0 5 0;
#X connect 1 0 0 1;
#X connect 2 0 0 2;
#X connect 4 0 0 0;
#X connect 4 0 3 0;
#X coords 0 -1 1 1 100 80 1 100 100;
